<?xml version="1.0" encoding="utf-8"?>
<!-- Generator: Adobe Illustrator 27.5.0, SVG Export Plug-In . SVG Version: 6.00 Build 0)  -->
<svg version="1.1" id="Layer_2_00000072248646224233264000000012965344322552946619_"
	 xmlns="http://www.w3.org/2000/svg" xmlns:xlink="http://www.w3.org/1999/xlink" x="0px" y="0px" viewBox="0 0 118.6 120.8"
	 style="enable-background:new 0 0 118.6 120.8;" xml:space="preserve">
<style type="text/css">
	.st0{fill:#0055A5;}
</style>
<g>
	<path class="st0" d="M96.3,50.2c-1.9,8.3-3.8,16.6-5.8,25.2c0.6,0,1,0,1.4,0c7.9,0,15.8,0,23.7,0c2.3,0,3,0.6,3,3
		c0,13.1,0,26.2,0,39.4c0,2.5-0.6,3.1-3.1,3.1c-37.4,0-74.8,0-112.2,0c-0.4,0-0.8,0-1.1,0c-1.2-0.1-1.9-0.6-2-1.7
		C0.1,118,0,116.9,0,115.8c0-15.8,0-31.6,0.1-47.4C0.1,67,0,65.6,0,64.2c0-2.1,0.9-3.1,3-3c6.7,0,13.4,0.1,20.2,0.2
		c0.3,0,0.5,0,0.8,0c2,0,2,0,2.5-2.1c0.6-2.9,1.4-5.9,2-8.8c0.3-1.4,1.1-2.2,2.4-2.5c1.9-0.5,3.8-0.9,5.9-1.5
		c-0.4-0.4-0.6-0.7-0.9-0.9c-1.3-1.1-2.6-2.2-3.9-3.2C31.1,41.8,30.8,41,31,40c0.3-1.2,0.5-2.4,0.8-3.6c0.3-1.3,0.3-1.4-1-1.1
		c-2.7,0.5-4.9-0.4-6.5-2.4c-1.7-2.1-1.9-4.5-0.6-7c1-1.9,2.7-2.9,4.5-3.7c7-3.3,14-6.5,21-9.8c6.5-3,13-5.9,19.4-8.9
		c3.7-1.7,6.3-1.1,8.9,2.1c5.6,6.9,11.2,13.9,16.8,20.9c3.6,4.5,7.4,8.9,10.9,13.4c1.1,1.4,2.2,3,2.7,4.6c1.1,4.6-3.2,8.7-7.9,7.6
		C98.8,51.8,97.8,51,96.3,50.2z M114.1,116.3c0-0.4,0.1-0.7,0.1-1c0-11.3,0-22.5,0-33.8c0-1.8,0-1.8-1.8-1.8c-7.4,0-14.9,0-22.3,0
		c-0.5,0-0.9,0-1.4,0.1c-3,0.4-6,0.8-9.1,1.2c-3.1,0.4-6.1,0.9-9.2,1.3c-0.7,0.1-1,0.3-0.9,1.1c0.3,1.7,0.6,3.3,0.7,5
		c0.1,0.9,0.6,1.4,1.4,1.7c1.5,0.6,3,1.3,4.4,2c1.1,0.6,1.4,1.8,0.9,2.8c-0.6,1.1-1.6,1.5-2.8,1c-1.4-0.6-2.7-1.1-4-1.7
		c-0.9-0.4-1.6-0.5-2.4,0.2c-1,0.8-2.1,1.6-3.2,2.3c-1,0.7-1.4,1.5-1.4,2.7c0,3.6-0.2,7.2-0.3,10.7c0,1-0.5,1.5-1.3,1.9
		c-1,0.4-1.9,0-2.8-1.3c-3.4-4.3-6.7-8.6-10.1-12.9c-1.2-1.5-1.3-2.4-0.1-3.9c1.3-1.8,2.7-3.6,3.9-5.4c0.3-0.4,0.3-1.1,0.1-1.5
		c-0.9-2.3-2-4.5-2.9-6.8c-0.4-1-0.9-1.2-1.8-0.9c-1.6,0.6-3.2,1.2-4.9,1.8c-1.4,0.5-2.5,0-2.9-1.1c-0.4-1.2,0-2.1,1.4-2.7
		c1.5-0.6,3-1.1,4.4-1.7c0.5-0.2,0.9-0.4,1.4-0.7c-0.8-1.6-1.4-3-2.2-4.4c-0.3-0.5-0.8-0.9-1.4-1c-3.7-0.9-7.4-1.7-11.1-2.4
		c-2.6-0.5-5.2-1.3-7.9-1.4c-6.3-0.2-12.5-0.1-18.8-0.1c-1.1,0-1.4,0.3-1.4,1.4c0,16.1,0,32.2,0,48.3c0,0.3,0,0.7,0.1,1
		C41,116.3,77.5,116.3,114.1,116.3z M54.6,36.3c1.6,0.4,3.6,0.8,5.6,1.3c5,1.2,10,2.3,15,3.6c2,0.5,2.2,0.9,1.8,2.9
		c-1.9,8.5-3.9,16.9-5.8,25.4c-0.3,1.4-0.3,1.6,1.1,1.9c4.4,1.1,8.8,2.2,13.3,3.2c0.3,0.1,0.8-0.3,0.9-0.6c0.4-1.5,0.7-3.1,1.1-4.6
		c0.2-0.9-0.1-1.4-0.9-1.7c-0.8-0.3-1.7-0.6-2.5-1c-1.1-0.6-1.4-1.5-1-2.6c0.4-1,1.3-1.5,2.5-1.2c0.7,0.2,1.4,0.4,2.2,0.7
		c0.8,0.3,1.3,0.2,1.4-0.8c0.1-0.9,0.3-1.8,0.6-2.8c1-4.5,2.1-9.1,3.1-13.6c0.1-0.4,0-1-0.3-1.3c-1.3-1.7-2.6-3.4-4-5.1
		c-5.9-7.3-11.8-14.6-17.7-21.9c-0.6-0.7-1-0.9-1.9-0.5c-5.8,2.7-11.6,5.4-17.4,8.2c-4.5,2.1-9,4.2-13.5,6.3c-0.5,0.2-1,0.7-1.1,1.1
		c-0.5,1.8-0.8,3.7-1.3,5.5c-0.2,0.9,0,1.3,0.7,1.8c2.3,1.8,4.5,3.7,6.7,5.6c1.4,1.2,0.9,3-0.7,3.7c-0.5,0.2-1,0.3-1.5,0.4
		c-2.5,0.6-5,1.2-7.5,1.8c-0.4,0.1-0.8,0.5-0.9,0.8c-0.7,2.7-1.4,5.5-2,8.2c-0.1,0.6,0,0.9,0.6,1.1c4.1,1,8.2,2,12.3,2.9
		c2.5,0.6,2.5,0.5,3.1-2c1.1-5,2.2-9.9,3.4-14.9c0.8-3.3,1.5-6.7,2.3-10C52.3,36.9,53,36.3,54.6,36.3z M72.4,45.4
		c-0.3-0.2-0.6-0.5-0.9-0.6c-4.7-1.1-9.4-2.2-14.1-3.4c-1.6-0.4-1.6-0.4-1.9,1.2c-1.7,7.5-3.5,15.1-5.3,22.6
		c-0.3,1.1,0.1,1.4,1.1,1.6c4.8,1.1,9.7,2.2,14.5,3.3c0.6,0.1,1,0,1.1-0.7c1.2-5.3,2.4-10.6,3.6-16C71.1,50.9,71.7,48.3,72.4,45.4z
		 M103.9,46c-0.4-0.7-0.6-1.3-0.9-1.8c-0.8-1.1-1.8-2.2-2.6-3.3c-2.5-3.2-5-6.5-7.6-9.7c-4-4.9-8.1-9.8-12.1-14.7
		c-2.1-2.6-4.2-5.3-6.4-8c-1.4-1.7-2-1.9-4-1c-5,2.2-10,4.5-14.9,6.7c-6.3,2.9-12.6,5.8-18.9,8.7c-2.7,1.3-5.5,2.5-8.2,3.8
		c-1.2,0.6-1.5,1.3-1,2.5c0.5,1.4,1.7,1.9,3.1,1.2c7.6-3.5,15.3-6.9,22.9-10.4c5.4-2.5,10.9-5,16.3-7.5c1.5-0.7,1.8-0.6,2.8,0.6
		c3.1,3.8,6.2,7.6,9.3,11.4c5.6,7,11.2,14,16.9,21c0.5,0.6,1,1.4,1.7,1.7c0.6,0.3,1.5,0.4,2.1,0.1C103,47.3,103.4,46.6,103.9,46z
		 M75.1,77.3c0-0.2,0-0.3,0.1-0.5c-8.3-1.9-16.6-3.8-25-5.7c0.1,0.4,0,0.5,0.1,0.7c2.3,4.9,4.5,9.8,6.8,14.6
		c0.6,1.4,0.6,2.5-0.4,3.6c-1.3,1.6-2.6,3.3-3.8,5.1c-0.2,0.3-0.3,0.8-0.2,1c1.7,2.2,3.5,4.4,5.2,6.5c0.2,0.2,0.5,0.4,0.9,0.7
		c0-2.2,0-4,0-5.9c0-1.3,0.4-2.4,1.5-3.2c1.8-1.2,3.5-2.5,5.2-3.8c0.3-0.2,0.5-0.7,0.5-0.9c-0.4-2.8-0.9-5.6-1.3-8.4
		c-0.2-1.4,0.5-2.4,1.8-2.7c1.7-0.3,3.5-0.6,5.2-0.8C73,77.5,74,77.4,75.1,77.3z"/>
	<path class="st0" d="M18.7,110.8c-3.2,0-6.5,0-9.7,0c-1.3,0-2.1-0.7-2.3-1.8c-0.2-0.9,0.5-2,1.5-2.4c0.5-0.2,1.1-0.3,1.7-0.3
		c5.9,0,11.8,0,17.7,0c0.6,0,1.2,0.1,1.8,0.3c1,0.3,1.7,1.4,1.5,2.4c-0.2,1-1,1.8-2.1,1.8C25.3,110.9,22,110.9,18.7,110.8
		C18.7,110.9,18.7,110.9,18.7,110.8z"/>
	<path class="st0" d="M36.2,110.9c-1.5,0-2.2-0.7-2.2-2.1c0-1.4,0.9-2.3,2.1-2.3c1.2,0,2.1,1.1,2.1,2.4
		C38.1,110.2,37.5,110.9,36.2,110.9z"/>
</g>
</svg>
