<?xml version="1.0" encoding="UTF-8"?>
<svg id="Layer_2" data-name="Layer 2" xmlns="http://www.w3.org/2000/svg" viewBox="0 0 117.44 70.7">
  <defs>
    <style>
      .cls-1 {
        fill: #0055a5;
      }
    </style>
  </defs>
  <g id="Layer_2-2" data-name="Layer 2">
    <g>
      <path class="cls-1" d="m.28,43.11c0-3.34-.31-6.71.07-10,.57-4.97,4.51-8.8,9.46-9.78,3.61-.71,7.23-1.38,10.85-2.05,1.03-.19,1.69-.71,2.17-1.67,2.32-4.58,4.65-9.16,7.08-13.68C32,2.07,35.3.03,39.73.03,52.27,0,64.81.03,77.35,0c4.88-.01,8.33,2.27,10.56,6.46,2.34,4.41,4.52,8.9,6.87,13.3.35.66,1.2,1.31,1.93,1.47,3.49.78,7.02,1.46,10.55,2.06,5.53.94,10.1,6.06,10.17,11.68.06,5.09-.04,10.18.03,15.28.09,6.02-4.17,8.84-8.66,8.81-.49,0-.98.03-1.46-.03-1.5-.19-2.31.28-2.81,1.89-1.76,5.63-7.52,9.77-13.29,9.8-5.32.02-11.28-4.4-13-9.85-.46-1.45-1.09-1.83-2.55-1.82-11.13.07-22.26.06-33.38.07-2.46,0-2.32.06-3.21,2.25-3.7,9.08-14.56,12.86-22.68,5.12-1.85-1.77-3.2-3.9-3.82-6.41-.22-.91-.77-.92-1.5-.96-1.74-.1-3.51-.11-5.2-.49C2.34,57.82.08,54.91.02,51.25c-.05-2.71,0-5.43,0-8.15.09,0,.18,0,.27,0Zm16.78,10.48c0,.84.03,1.42,0,2-.21,3.56,1.4,6.11,4.28,8.04,6.2,4.15,13.45-1.57,13.44-6.53,0-1.14.2-2.27.31-3.43h47.34c0,1.15-.06,2.2,0,3.25.3,4.83,5.89,9.1,10.43,7.99,4.83-1.18,7.96-5.21,7.4-9.71-.16-1.28.29-1.69,1.59-1.64,2.43.09,4.86.03,7.29,0,2.12-.03,2.85-.71,2.86-2.79.02-5.14.04-10.28-.05-15.43-.05-3.3-2.07-5.7-5.29-6.38-3.98-.83-7.97-1.62-11.99-2.28-1.84-.3-3.02-1.09-3.88-2.8-2.51-5.03-5.18-9.97-7.79-14.95-1.2-2.29-3.11-3.32-5.69-3.31-12.54.04-25.08.05-37.61.05-2.37,0-4.14.96-5.24,3.03-2.68,5.05-5.4,10.08-7.93,15.21-.86,1.76-2.04,2.48-3.88,2.77-4.11.66-8.21,1.42-12.29,2.27-3.1.64-4.96,3.08-4.98,6.26-.02,5.19.03,10.38-.02,15.57-.01,1.55.68,2.38,2.12,2.64.81.14,1.64.16,2.46.17,2.32.02,4.64,0,7.09,0Z"/>
      <g id="Layer_1-2" data-name="Layer 1-2">
        <path class="cls-1" d="m75.38,35.15c-1.04,0-2.1.06-3.14-.01-1.4-.1-2.14-.91-2.13-2.22,0-1.23.63-2.12,1.92-2.19,2.24-.12,4.49-.12,6.73-.02,1.33.06,2.14,1.14,2.06,2.34-.08,1.23-.89,2.01-2.3,2.09-1.04.06-2.1.01-3.14.01h0Z"/>
        <path class="cls-1" d="m30.48,56.79c.01,2.77-2.11,4.97-4.86,5.03-2.78.06-5.09-2.24-5.06-5.03.03-2.74,2.24-4.93,4.98-4.93s4.93,2.16,4.94,4.93Zm-3.23.09c.03-.89-.86-1.77-1.75-1.75-.84.02-1.64.82-1.67,1.66-.02.84.72,1.67,1.57,1.75.89.08,1.81-.74,1.84-1.65h0Z"/>
        <path class="cls-1" d="m96.24,56.79c.01,2.77-2.11,4.97-4.86,5.03-2.78.06-5.09-2.24-5.06-5.03.03-2.74,2.24-4.93,4.98-4.93s4.93,2.16,4.94,4.93Zm-3.23.09c.03-.89-.86-1.77-1.75-1.75-.84.02-1.64.82-1.67,1.66-.02.84.72,1.67,1.57,1.75.89.08,1.81-.74,1.84-1.65h0Z"/>
      </g>
      <path class="cls-1" d="m49.04,25.53c0-1.51-.02-2.9,0-4.29.07-5.32,4.46-9.58,9.86-9.57,5.06,0,9.46,4.47,9.51,9.64,0,1.02,0,2.04-.07,3.05-.05.83.17,1.22,1.1,1.28,3.34.22,3.63.55,3.65,4,.02,3.88.01,7.75,0,11.63-.01,2.69-.82,3.72-3.48,3.78-5.43.12-10.87.04-16.3.04-1.98,0-3.98.11-5.95-.07-2.18-.19-2.97-1.18-2.98-3.34-.02-4.12-.02-8.24-.01-12.35,0-3.17.43-3.59,3.57-3.69.29,0,.57-.05,1.12-.09Zm9.7.11h0c1.07-.01,2.15.06,3.2-.05.38-.04,1.03-.52,1.03-.8,0-1.54.04-3.12-.3-4.61-.36-1.6-1.48-2.7-3.26-2.88-1.86-.19-3.68.06-4.37,2.02-.51,1.45-.43,3.1-.65,4.66-.17,1.24.24,1.82,1.58,1.68.91-.09,1.84-.02,2.77-.02Z"/>
    </g>
  </g>
</svg>