<?xml version="1.0" encoding="UTF-8"?>
<svg id="Layer_2" data-name="Layer 2" xmlns="http://www.w3.org/2000/svg" viewBox="0 0 117.73 110.24">
  <defs>
    <style>
      .cls-1 {
        fill: #0055a5;
      }
    </style>
  </defs>
  <g id="Layer_2-2" data-name="Layer 2">
    <g>
      <path class="cls-1" d="m66.56,48.21c-.68-2.25-1.5-4.26-1.87-6.35-.54-3.04-.98-6.12-1.08-9.2-.17-5.5-.04-11.02-.07-16.53,0-1.53.58-2.64,1.92-3.38,7.41-4.07,14.82-8.14,22.21-12.24,1.25-.69,2.35-.67,3.6,0,7.63,4.06,15.29,8.09,22.95,12.1,1.24.65,2.03,1.51,2.02,2.97-.07,6.64.04,13.28-.25,19.91-.34,7.95-3.69,14.76-8.68,20.85-2.05,2.51-4.44,4.59-7.14,6.33-.9.58-.67.96-.32,1.85,1.3,3.33,4.15,4.49,7.09,5.67,1.64.66,3.24,1.43,4.81,2.25,3.63,1.88,5.88,4.77,5.95,8.97.06,3.24.04,6.5-.2,9.73-.35,4.7-4.31,8.72-9.04,8.96-2.92.15-4.7.97-6.05,3.86-1.85,3.97-5.72,5.7-9.96,6.19-6.54.75-11.96-3.71-13.64-8.64-.36-1.06-1.16-1.04-2.02-1.04-7.38.01-14.77.03-22.15.04-4.87,0-9.75.01-14.62-.02-1.27,0-2.06.18-2.63,1.64-1.54,3.96-6.2,8.43-13.37,8.08-4.52-.22-9.56-3.86-11.26-8.53-.38-1.04-1.05-1.16-1.92-1.21-4.11-.27-7.41-2.01-9.43-5.65-.74-1.32-1.27-2.93-1.33-4.43-.12-3.28-.22-6.63.31-9.84.69-4.18,3.54-6.82,7.61-7.97,5.48-1.54,10.99-2.94,16.47-4.49.83-.24,1.71-.8,2.25-1.47,2.97-3.74,5.98-7.45,8.69-11.37,3.26-4.69,7.63-6.9,13.26-6.9,5.42,0,10.83-.02,16.25-.04.51,0,1.03-.06,1.63-.1Zm-8.55,5.3h0c-3.54,0-7.09-.03-10.63.02-2.64.04-4.9.99-6.58,3.09-3.23,4.03-6.63,7.94-9.59,12.16-1.93,2.74-4.33,4.25-7.5,4.84-.39.07-.77.17-1.15.28-4.36,1.18-8.73,2.3-13.06,3.57-2.23.66-4.1,1.97-4.26,4.53-.17,2.84-.15,5.71-.02,8.55.09,2.03,1.35,3.49,3.16,4.29,2.09.93,3.11.38,3.86-1.8,2.05-5.93,6.96-9.59,13.14-9.68,5.08-.07,11.07,3.66,12.75,10.28.33,1.31.92,1.64,2.12,1.59,2.65-.1,5.31-.17,7.97-.16,9.29.01,18.59.04,27.88.1,1.24,0,1.87-.31,2.23-1.65,1.74-6.46,8.19-10.99,14.48-10.02,5.26.81,10.3,4.37,11.49,10.23.11.53.53,1.3.96,1.43,3.42,1.01,7.2-1.78,7.3-5.38.07-2.51,0-5.02.03-7.53.04-2.8-1.29-4.64-3.81-5.73-1.98-.86-3.92-1.84-5.94-2.6-2.84-1.07-4.91-2.85-6.35-5.57-1.46-2.74-1.62-2.68-4.48-1.45-1.32.57-2.61,1.14-4.09.56-6.94-2.73-12.7-7.03-17.21-12.96-.55-.72-1.05-1.02-1.92-1.01-3.59.04-7.19.02-10.78.02Zm10.6-26.09c.14,3.1-.15,7.26.59,11.23,2.06,11.07,8.69,18.67,18.93,23.18.57.25,1.38.33,1.96.13,10.59-3.78,17.54-10.98,20.12-22.02,1.71-7.31.69-14.79.82-22.19,0-.55-.65-1.33-1.21-1.63-6.34-3.45-12.71-6.85-19.12-10.19-.58-.3-1.58-.31-2.15,0-3.15,1.61-6.22,3.38-9.33,5.06-3.11,1.68-6.27,3.27-9.35,5.02-.57.32-1.16,1.15-1.19,1.77-.13,2.89-.06,5.8-.06,9.67Zm31.01,69.57c-.03-4.69-3.8-8.38-8.51-8.34-4.55.04-8.39,3.74-8.37,8.05.03,4.61,3.88,8.38,8.53,8.35,4.47-.03,8.37-3.8,8.34-8.07Zm-66.11-.21c-.22-4.86-4.03-8.37-8.82-8.12-4.69.24-8.18,4.04-7.95,8.66.23,4.55,4.12,7.93,8.89,7.72,4.15-.18,8.06-4.28,7.88-8.26Z"/>
      <path class="cls-1" d="m86.03,43.25c-.72-.42-1.52-.66-1.98-1.19-2.05-2.32-4.01-4.71-5.98-7.09-1.09-1.33-1.11-2.46-.13-3.4,1.07-1.03,2.48-.99,3.65.22,1.23,1.27,2.38,2.61,3.55,3.93,1.25,1.41,1.44,1.45,2.86.3,2.83-2.28,5.64-4.58,8.47-6.86.95-.77,1.91-1.54,2.9-2.27,1.28-.94,2.61-.88,3.43.1.89,1.06.79,2.69-.37,3.69-2.2,1.88-4.45,3.71-6.71,5.53-2.44,1.97-4.9,3.94-7.39,5.86-.63.49-1.44.75-2.31,1.2Z"/>
      <g id="Layer_1-2" data-name="Layer 1-2">
        <path class="cls-1" d="m75.04,74.86c-1.11,0-2.23.06-3.34-.01-1.49-.1-2.27-.91-2.26-2.22,0-1.23.67-2.12,2.04-2.19,2.38-.12,4.77-.12,7.15-.02,1.41.06,2.27,1.14,2.19,2.34-.08,1.23-.95,2.01-2.44,2.09-1.11.06-2.23.01-3.34.01h0Z"/>
        <path class="cls-1" d="m30.48,96.51c.01,2.77-2.11,4.97-4.86,5.03-2.78.06-5.09-2.24-5.06-5.03.03-2.74,2.24-4.93,4.98-4.93s4.93,2.16,4.94,4.93Zm-3.23.09c.03-.89-.86-1.77-1.75-1.75-.84.02-1.64.82-1.67,1.66-.02.84.72,1.67,1.57,1.75.89.08,1.81-.74,1.84-1.65h0Z"/>
        <path class="cls-1" d="m96.24,96.51c.01,2.77-2.11,4.97-4.86,5.03-2.78.06-5.09-2.24-5.06-5.03.03-2.74,2.24-4.93,4.98-4.93s4.93,2.16,4.94,4.93Zm-3.23.09c.03-.89-.86-1.77-1.75-1.75-.84.02-1.64.82-1.67,1.66-.02.84.72,1.67,1.57,1.75.89.08,1.81-.74,1.84-1.65h0Z"/>
      </g>
    </g>
  </g>
</svg>