<?xml version="1.0" encoding="UTF-8"?>
<svg id="Layer_2" data-name="Layer 2" xmlns="http://www.w3.org/2000/svg" viewBox="0 0 116.12 127.6" style="fill:rgb(0, 85, 165);">
  <defs>
    <style>
      .cls-1 {
        fill: #fff;
      }
    </style>
  </defs>
  <g id="Layer_1-2" data-name="Layer 1">
    <path d="m111.5,32.71v3.03c0,15.84,0,31.67,0,47.51,0,.64.02,1.28,0,1.92-.08,2.46-.69,3.07-3.21,3.07-7.28.02-14.56,0-21.83,0-.86,0-1.71,0-2.91,0,0,1.37.04,2.47,0,3.56-.18,3.9.13,7.92-.7,11.69-2.72,12.42-10.49,20.36-22.7,23.85-1.31.37-2.89.31-4.23-.03-13.63-3.45-23.26-15.85-23.31-29.87-.01-2.94,0-5.89,0-9.07-1.07-.05-1.92-.13-2.76-.13-7.04-.01-14.08,0-21.11,0-.56,0-1.12.03-1.68-.02-1.51-.13-2.16-.74-2.32-2.21-.08-.79-.05-1.6-.05-2.4,0-16,0-31.99,0-47.99v-2.91c-.79-.09-1.33-.17-1.87-.22-2.12-.19-2.78-.84-2.79-3.04C0,20.67,0,11.87.02,3.07.02.78.74.11,3.04.03c.48-.02.96,0,1.44,0,35.67,0,71.34.02,107.01-.03,4.87,0,4.64,1.04,4.62,4.59-.04,7.92-.01,15.84-.01,23.75,0,.64.03,1.28-.03,1.92-.14,1.33-.78,1.99-2.1,2.2-.39.06-.8.02-1.2.05-.31.02-.62.09-1.27.19ZM4.74,4.76v23.06h106.51c.54-2.23.51-21.07-.03-23.06H4.74Zm102.09,28.03c-2.97-.5-95.68-.37-97.51.13v50.65h23.29c0-2.06-.01-3.96,0-5.86.02-2.46.33-2.84,2.76-3.38,2.09-.46,4.19-.9,6.48-1.39v-2.99c0-9.68-.01-19.35.02-29.03,0-.92.15-1.93.55-2.74.55-1.1,1.78-.87,2.81-.87,8.56-.01,17.11,0,25.67,0,.4,0,.8-.01,1.2.03,1.38.17,2,.77,2.15,2.12.07.63.03,1.28.03,1.92,0,9.6,0,19.19,0,28.79v2.76c2.35.5,4.53.95,6.7,1.44,2.19.49,2.5.87,2.57,3.05.03,1.2-.01,2.4.02,3.6.02.84.1,1.68.16,2.58h23.11v-50.8Zm-27.55,46.14c-.68-.3-.96-.48-1.26-.54-6.41-1.3-12.83-2.6-19.25-3.85-.6-.12-1.26,0-1.88.12-6.11,1.19-12.21,2.4-18.31,3.62-.45.09-.86.33-1.25.49-.08.35-.18.58-.18.81.01,6.47-.18,12.95.1,19.4.47,10.94,8.35,20.66,18.9,23.77,1.27.37,2.49.45,3.75.03,10.55-3.56,17.29-10.71,18.72-21.78.93-7.24.49-14.65.66-22.06Zm-9.85-36.89c-2.38-.47-21.04-.4-22.82.09-.51,3.5-.31,28.12.28,29.85,2.71-.54,5.46-1.01,8.17-1.64,2.07-.48,4.06-.47,6.12.02,2.7.64,5.44,1.09,8.16,1.62.54-2.03.58-27.75.09-29.93Z"/>
    <path class="cls-1" d="m52.93,60.51c-.96,0-1.36-.04-1.76,0-1.47.16-2.28.97-2.28,2.25,0,1.17.73,2.08,2.06,2.23,1.01.11,2.08.08,3.07-.14,1.16-.25,1.68-1.19,1.56-2.35-.11-1.1-.74-1.74-1.79-1.95-.46-.09-.95-.07-.87-.06Z"/>
    <path d="m34.79,54.56c0,3.19.02,6.38,0,9.57-.02,2.52-.61,3.12-3.11,3.14-4.07.03-8.14.03-12.21,0-2.59-.02-3.17-.56-3.18-3.06-.03-6.38-.02-12.76,0-19.15,0-2.45.71-3.19,3.09-3.21,4.07-.04,8.14-.03,12.21,0,2.5.02,3.18.75,3.2,3.36.02,3.11,0,6.22,0,9.33Zm-4.72-7.97h-9.04v16.12h9.04v-16.12Z"/>
    <path d="m81.46,54.52c0-3.2-.02-6.39,0-9.59.02-2.37.64-3.03,2.96-3.05,4.16-.04,8.31-.04,12.47,0,2.2.02,2.92.7,2.94,2.87.05,6.55.05,13.11,0,19.66-.01,2.25-.64,2.85-2.88,2.87-4.24.04-8.47.05-12.71,0-2.25-.03-2.76-.58-2.78-2.93-.03-3.28,0-6.55,0-9.83Zm4.69-7.94c-.53,3.37-.38,14.48.17,16.12h8.87v-16.12h-9.04Z"/>
    <path d="m55.87,99.09c2.21-2.26,4.28-4.37,6.35-6.48.45-.46.88-.94,1.39-1.32,1.04-.78,2.23-.7,3.03.14.71.74.82,1.96.22,2.88-.21.33-.53.59-.81.88-2.71,2.72-5.41,5.45-8.15,8.14-1.68,1.65-2.59,1.65-4.27.04-1.33-1.27-2.64-2.57-3.89-3.91-1.1-1.18-1.13-2.49-.2-3.4.9-.88,2.26-.83,3.43.22.94.84,1.82,1.75,2.9,2.81Z"/>
    <path d="m52.93,60.51c-.08,0,.4-.03.87.06,1.05.21,1.69.85,1.79,1.95.11,1.15-.4,2.09-1.56,2.35-.99.22-2.06.25-3.07.14-1.33-.15-2.06-1.07-2.06-2.23,0-1.29.81-2.1,2.28-2.25.39-.04.8,0,1.76,0Z"/>
  </g>
</svg>