<?xml version="1.0" encoding="UTF-8"?>
<svg id="Layer_2" data-name="Layer 2" xmlns="http://www.w3.org/2000/svg" viewBox="0 0 118.6 110.79">
  <defs>
    <style>
      .cls-1 {
        fill: #0055a5;
      }
    </style>
  </defs>
  <g id="Layer_2-2" data-name="Layer 2">
    <g>
      <path class="cls-1" d="m93.56,110.79c-6.7,0-13.03-4.57-15.39-11.11-.2-.56-.23-.56-.75-.56-4.07.04-8.1.05-12.13.05-1.83,0-3.66,0-5.49,0-7.87-.03-15.95-.09-24.01-.17h0c-.54,0-.58.03-.75.5-2.06,5.8-6.21,9.55-12,10.84-1.3.29-2.6.44-3.84.44-4.9,0-9.18-2.21-12.71-6.58-4.37-5.4-4.85-12.38-1.28-18.67,0-.01.01-.02.02-.04,0,0-.01,0-.02-.01-1.38-.88-2.67-1.91-3.86-2.9-.53-.44-1.25-1.15-1.34-2.15-.09-1.02.51-1.86.97-2.41,3.78-4.52,8.51-7.29,14.05-8.24,2.24-.38,4.53-.43,6.75-.47.28,0,.39-.02.43-.03-.02,0,.05-.13.17-.48.94-2.65,2.09-5.06,3.41-7.17,1.07-1.7,2.28-3.31,3.45-4.87.77-1.03,1.57-2.09,2.31-3.16.33-.48.55-1.15.56-1.67.02-3.34-.02-6.73-.06-10.02-.02-1.37-.03-2.73-.04-4.1,0-.37.04-.76.12-1.23.41-2.26,1.82-2.59,2.63-2.59.34,0,.7.05,1.1.17l.48.13c2.01.56,4.08,1.13,5.9,2.43l.09-.45c.35-1.65.69-3.28,1.02-4.91.47-2.31.96-2.71,3.29-2.74.18,0,.37,0,.56-.02.24,0,.49-.02.73-.02.18,0,.37,0,.55.02-.04-.6-.02-1.19,0-1.71.06-1.8,1.29-3.15,2.91-3.21h.1c1.63,0,2.94,1.39,2.96,3.16.02,1.78,0,3.59-.02,5.34v1.2c-.02.99-.05,1.98-.1,2.97-.09,1.75-1.22,2.96-2.8,3.02h0c-1.55,0-2.81-1.35-2.89-3.01-.02-.35-.02-.71-.02-1.06,0-.22,0-.44,0-.65,0-.06,0-.12,0-.18-.04,0-.07,0-.09,0,0,.03-.02.07-.03.13-.31,1.56-.64,3.12-.98,4.68-.32,1.47-.63,2.94-.93,4.42-.01.06.02.31.16.64.38.85.83,1.74,1.35,2.65.38.67.76,1.31,1.22,1.82.94,1.05,1.94,2.09,2.91,3.1.43.45.86.89,1.28,1.34,1.26,1.33,1.27,3.08.02,4.35-.61.62-1.28.94-2,.94-.79,0-1.55-.39-2.26-1.15-.57-.61-1.12-1.24-1.68-1.87-.24-.27-.48-.54-.72-.81-.52.75-1.03,1.46-1.54,2.17-2.14,3-4.16,5.83-5.56,9.11-1.36,3.17-1.99,5.67-2.05,8.08-.08,3.27,1.4,5.98,4.39,8.07,4.08,2.84,8.34,4.29,12.65,4.29,2.64,0,5.36-.54,8.07-1.61,2.17-.86,3.7-2.13,4.68-3.9.77-1.4.8-2.75.09-4.26-1.29-2.74-3.47-4.83-5.43-6.52-1.83-1.57-2.85-3.48-3.13-5.83-.25-2.14.46-4.37,1.96-6.1,1.42-1.64,3.37-2.58,5.35-2.6,4.77-.03,9.55-.04,14.32-.04s9.89.01,14.84.04c4.07.02,8.67,3.88,9.64,8.1.26,1.13.8,2.08,1.8,3.19,6.07,6.68,9.63,13.05,11.2,20.02.29,1.3.38,2.62.45,3.99.06,1.15-.22,2.07-.82,2.72s-1.53,1.02-2.72,1.05c-.82.02-1.64.03-2.46.03-.76,0-1.51,0-2.27-.04h-.07s0,.03,0,.05c-.59,6.87-4,11.9-9.86,14.56-2.24,1.01-4.53,1.53-6.83,1.53Zm-73.91-27.66c-2.97,0-5.88,1.3-7.99,3.57-1.92,2.06-2.94,4.65-2.81,7.12,0,2.9,1.15,5.71,3.18,7.78,1.97,2.01,4.5,3.11,7.13,3.11h.22c6.54-.15,10.57-4.18,10.78-10.78.09-2.67-.96-5.3-2.94-7.39-2.04-2.15-4.77-3.39-7.51-3.41l-.05-1.2v1.2Zm63.22,11.55c.41,4.33,3.57,8.26,7.65,9.53,1,.31,2.03.47,3.08.47,5.64,0,10.44-4.47,10.79-10.01-.05,0-1.18-.01-1.38-.01-.23,0-.46,0-.69.02-.26,3.12-1.97,5.55-5.09,7.21-1.06.57-2.23.85-3.48.85-4.3,0-8.17-3.32-8.61-7.41-.03-.26-.04-.48-.06-.67h-2.22Zm7.98,0c.37,1.05,1.72,2.16,2.73,2.16,1.03,0,2.34-1.08,2.7-2.15-.78,0-1.55,0-2.33,0-1.03,0-2.07,0-3.1,0Zm-52.85-1.6c0-.1-.01-.93-.01-.93,0-.25,0-.5-.04-.75-.92-7.43-7.2-14.18-14.61-15.71-1.36-.28-2.7-.42-3.99-.42-3.86,0-7.4,1.22-10.8,3.74-.33.25-.75.56-1.02.78.23.24.61.58.97.91l.08.07c.29.26.41.28.41.28,0,0,.13,0,.51-.28,3.23-2.38,6.59-3.59,10-3.59,1.49,0,3.01.23,4.52.68,6.82,2.04,11.87,8.28,12.02,14.85,0,.12,0,.26,0,.37.07,0,.61,0,.61,0,0,0,1.3,0,1.34,0Zm38.7,0c.28,0,.46-.02.58-.04-.02-.12-.06-.3-.16-.56-.04-.1-.1-.2-.15-.3-.1-.19-.2-.38-.28-.58-.37-.94-.75-1.87-1.14-2.8-.81-1.95-1.64-3.96-2.28-6.03-.66,1.59-1.73,3.1-3.21,4.51-3.04,2.89-7,4.46-12.47,4.94-.78.07-1.57.1-2.35.1-3.71,0-7.54-.75-11.68-2.3.13.91.24,1.77.33,2.63.02.16.03.31.05.44.13,0,32.77,0,32.77,0Zm12.69-17.39c-2.29,0-4.97.08-7.53.63-1.41.31-2.36.86-2.82,1.64-.47.79-.51,1.94-.11,3.4.43,1.57,1.05,3.08,1.7,4.67.32.77.63,1.54.92,2.32.08.22.1.26.49.26,2.14-.02,4.25-.02,6.37-.02h5.58s1.09,0,1.09,0c0,0,12.39,0,12.53,0-.06-.13-.11-.26-.17-.37-2.1-4.61-4.96-7.89-8.75-10.04-2.88-1.64-5.9-2.47-8.96-2.48h-.35Zm.33-6.14c4.57.19,8.52,1.38,12.02,3.61,2.54,1.62,4.65,3.34,6.37,5.19-1.2-1.64-2.48-3.25-3.72-4.81-.9-1.13-1.8-2.26-2.68-3.41-.34-.45-.65-.6-1.24-.6-3.59,0-7.17.01-10.76.01Zm-19.62.11c.64.8,1.31,1.63,1.87,2.54.75,1.21,1.29,2.42,1.63,3.62.56-1.1,1.38-2.14,2.45-3.09,2.29-2.05,5.07-2.62,7.49-2.91,1.2-.14,2.32-.23,3.4-.27-2.34,0-16.92.01-16.92.01.03.03.05.06.08.1Zm-42.36,1.12c.17.08.38.16.51.21.98.39,1.92.86,2.83,1.31,0,0,.84.41.92.46.02-.31.05-.61.1-.92.58-3.83,1.61-6.98,3.15-9.63,1.81-3.12,3.84-6.15,5.8-9.09l1.06-1.59c.38-.58.58-1.09.62-1.61l-1.91,2.2c-2.74,3.15-5.57,6.4-8.25,9.68-2.12,2.59-3.69,5.44-4.66,8.47-.07.21-.12.38-.16.52Zm55.2-7.09c3.58-.04,7.11-.05,10.65-.05h5.03c-1.11-1.46-2.53-2.17-4.32-2.19-1.4,0-2.79-.01-4.19-.01h-5.7s0-1.19,0-1.19v1.2c-.57,0-1.16,0-1.48.04-.03.31-.02.87,0,1.42v.16c.02.17.03.39,0,.63,0,0,.01,0,.02,0Zm-17.91-.04c.81.01,1.61.01,2.42.01l7.05-.02c.85,0,1.71,0,2.56.01-.05-.78-.02-1.54,0-2.22-.75,0-4.05,0-4.05,0h-1.82c-1.38,0-2.77,0-4.15.02-1.17.01-1.96.69-2.22,1.89-.02.12-.04.21-.05.29.07,0,.15,0,.26,0Zm-27.23-22.67c0,.42,0,.84,0,1.26v4.2c.78-.84,1.62-1.77,2.42-2.73,0,0,0,0,0,0-.02,0,0-.07,0-.11-.48-1.29-1.27-2.17-2.41-2.62Z"/>
      <path class="cls-1" d="m19.71,102.76c-2.22,0-4.46-.97-6.14-2.65-1.69-1.69-2.65-3.93-2.65-6.15,0-4.9,3.88-8.73,8.82-8.73.08,0,.25-.02.42-.02,2.09,0,4.24,1.01,5.92,2.77,1.66,1.75,2.59,3.98,2.5,5.96-.22,4.86-4.2,8.82-8.86,8.82h0Zm.08-11.65c-.76,0-1.53.34-2.11.94-.53.54-.82,1.23-.81,1.89.03,1.33,1.48,2.79,2.77,2.79.81,0,1.53-.29,2.04-.81.5-.51.78-1.24.77-2.04-.01-1.43-1.3-2.78-2.66-2.78v-1.2,1.2Z"/>
      <path class="cls-1" d="m19.74,86.42c4.02-.31,7.81,3.96,7.65,7.47-.19,4.1-3.6,7.68-7.68,7.67-4.01,0-7.61-3.61-7.6-7.61,0-4.26,3.33-7.54,7.64-7.54Zm3.9,7.46c-.02-2.1-1.84-3.97-3.86-3.97-2.19,0-4.14,1.94-4.1,4.06.04,2,2.03,3.98,3.98,3.96,2.31-.02,3.99-1.73,3.98-4.05Z"/>
      <g>
        <path class="cls-1" d="m117.13,19.04c0,3.51.18,7.04-.03,10.54-.79,13.35-10.77,25.02-23.8,27.92-.97.22-2.07.22-3.04,0-13.62-2.98-23.85-15.57-23.99-29.52-.07-6.72-.02-13.43,0-20.14,0-2.57.4-3.03,2.89-3.53,6.89-1.39,13.77-2.81,20.67-4.13,1.22-.23,2.57-.25,3.79-.02,6.9,1.32,13.78,2.74,20.67,4.12,2.55.51,3,1.02,3.03,3.72.03,3.68,0,7.35,0,11.03h-.19,0Zm-46.17-10.45c-.08.61-.18.99-.18,1.38.01,6.23-.13,12.47.1,18.69.42,10.97,7.88,20.51,18.35,23.95,1.76.58,3.38.52,5.11-.06,10.76-3.58,18.23-13.62,18.39-24.97.08-5.67.02-11.34,0-17.01,0-.62-.1-1.24-.16-1.88-.81-.21-1.49-.43-2.19-.57-4.93-.99-9.88-1.88-14.78-2.98-2.64-.59-5.17-.56-7.8.02-5.53,1.22-11.1,2.27-16.86,3.43h.02Z"/>
        <path class="cls-1" d="m88.2,34.47c-.72-.42-1.52-.66-1.98-1.19-2.05-2.32-4.01-4.71-5.98-7.09-1.09-1.33-1.11-2.46-.13-3.4,1.07-1.03,2.48-.99,3.65.22,1.23,1.27,2.38,2.61,3.55,3.93,1.25,1.41,1.44,1.45,2.86.3,2.83-2.28,5.64-4.58,8.47-6.86.95-.77,1.91-1.54,2.9-2.27,1.28-.94,2.61-.88,3.43.1.89,1.06.79,2.69-.37,3.69-2.2,1.88-4.45,3.71-6.71,5.53-2.44,1.97-4.9,3.94-7.39,5.86-.63.49-1.44.75-2.31,1.2Z"/>
      </g>
    </g>
  </g>
</svg>