<?xml version="1.0" encoding="UTF-8"?>
<svg id="Layer_2" data-name="Layer 2" xmlns="http://www.w3.org/2000/svg" viewBox="0 0 125.56 127.71" style="fill:rgb(0, 85, 165);">
  <g id="Layer_1-2" data-name="Layer 1">
    <path d="m81.77,117.75c-1.72-2.82-3.29-5.39-4.94-8.09-17.33,4.44-33.13,1.41-46.69-10.64-10.61-9.43-15.97-21.56-16.1-35.66-.26-27.69,21.7-49.43,49.06-49.27,31.07.19,53.12,28.27,47.69,57.86,2.91.59,5.83,1.18,8.72,1.77,4.6-12.07-2.11-39.27-11.74-46.94,0,1.16.05,2.08-.01,3-.1,1.52-.88,2.32-2.17,2.35-1.31.03-2.27-.74-2.31-2.22-.09-3.28-.09-6.56,0-9.83.04-1.38.93-2.22,2.35-2.25,3.2-.09,6.4-.09,9.59,0,1.49.04,2.33.96,2.36,2.21.03,1.36-.85,2.24-2.48,2.32-1.27.07-2.54.01-4.13.01.41.72.61,1.21.92,1.61,7.03,8.93,11.38,19.01,12.96,30.28.8,5.74.8,11.47-.04,17.21-.23,1.54-.8,3.11.47,4.55.3.34.24,1.07.24,1.62,0,6.96.12,13.92-.06,20.87-.36,13.9-10.43,26.02-24,29.05-.97.22-2.06.19-3.04-.01-3.97-.83-7.6-2.5-10.8-4.97-1.36-1.05-2.47-1.21-4.09-.63-29.08,10.29-61.21-1.94-75.85-29.13C-12.66,55.02,9.38,9.79,50.29,1.34c15.44-3.19,30.03-.61,43.74,7.11.56.31,1.13.62,1.63,1.01,1.16.9,1.4,2.09.69,3.14-.65.98-1.72,1.26-2.96.71-.51-.22-.98-.54-1.46-.82C57.46-7.43,13.65,12.17,5.77,51.24c-6.81,33.8,16.25,63.32,46.3,68.8,9.38,1.71,18.62,1.17,27.74-1.58.61-.18,1.19-.43,1.95-.7Zm-2.55-39.11c-.11.5-.21.74-.21.97,0,6.47-.2,12.95.08,19.41.47,10.99,8.53,20.82,19.15,23.85,1.2.34,2.3.34,3.5,0,11-3.13,18.96-13.34,19.16-24.81.1-5.91.03-11.82.01-17.74,0-.54-.13-1.08-.21-1.71-5.71-1.14-11.36-2.19-16.97-3.42-2.55-.56-5-.58-7.56-.01-5.61,1.24-11.25,2.31-16.96,3.46Zm-18.92,5.06v-18.44h-22.99c0,5.06.71,9.85,1.97,14.55.12.46.87.91,1.42,1.06,1.92.54,3.87,1,5.83,1.39,4.47.88,8.98,1.39,13.78,1.44Zm27.93-23.26c.03-5.06-.73-9.74-1.85-14.39-.27-1.14-1.23-1.16-2.03-1.38-5.01-1.38-10.13-2.17-15.31-2.54-1.24-.09-2.49-.01-3.97-.01,0,6.23-.07,12.23.04,18.32h23.12Zm-27.84-18.07c-.36-.17-.5-.28-.64-.29-6.59-.03-13.01,1.06-19.34,2.8-.96.26-1.23.89-1.37,1.72-.54,3.3-1.13,6.59-1.59,9.91-.17,1.23-.03,2.49-.03,3.72,2.81.52,21.21.4,22.97-.15v-17.71Zm14.04,40.74c0-2.15-.04-3.98.01-5.8.05-1.76.63-2.44,2.32-2.85,1.09-.26,2.2-.41,3.29-.64,2.56-.53,5.11-1.07,7.82-1.64.15-2.39.29-4.59.44-6.95h-22.92c-.54,2.65-.45,16.69.15,18.61,2.86-.24,5.77-.48,8.88-.74Zm-9.2-64.19v18.21c6.44.83,12.72,1.63,19.2,2.46-2.15-5.81-4.97-11.02-9.35-15.28-2.02-1.97-4.3-3.57-6.95-4.58-.87-.33-1.8-.5-2.91-.81Zm-4.89.29c-7.21.25-17.77,11.75-18.86,20.34,6.25-.81,12.53-1.62,18.86-2.44v-17.9Zm-19.02,66.91c1.31,5,5.13,11.56,9.21,15.23,1.87,1.68,4.1,3,6.27,4.31.97.59,2.21.74,3.35,1.1.51-2.62.44-16.48,0-18.15-6.26-.83-12.46-1.64-18.82-2.48Zm-20.58-9.69c4.56,12.77,12.63,21.52,24.59,27,0-.46.06-.65,0-.74-4.32-5.07-7.21-10.92-9.19-17.22-.37-1.17-1.1-1.64-2.11-2.01-4.23-1.54-8.22-3.53-11.82-6.26-.28-.21-.63-.34-1.47-.77Zm24.68-53.79c-9.2,1.93-24.28,18.47-24.13,26.53,3.86-3.07,8.08-5.31,12.61-6.9,1.38-.49,2-1.31,2.42-2.62,1.86-5.83,4.54-11.23,8.44-15.98.23-.28.4-.62.66-1.03Zm58.95,26.38c-1.08-9.24-16.4-25.85-24.31-26.28,4.31,5.08,7.27,10.78,9.22,17,.43,1.36,1.14,2.08,2.48,2.56,4.22,1.51,8.19,3.55,11.76,6.29.23.17.52.27.84.43Zm-39.28,39.33c-.03,6.18-.02,12.18,0,18.4,3.81-.63,6.66-2.29,9.15-4.59.34-.31.47-1,.46-1.51-.06-3.75-.16-7.49-.28-11.24-.02-.53-.14-1.06-.23-1.71-2.97.21-5.81.41-9.11.64Zm-31.12-10.06c-.49-4.36-.98-8.66-1.46-12.94-2.78-.46-11.59-.36-13.28.13,1.1,5.04,8.28,11.33,14.74,12.81Zm-1.46-17.91c.49-4.38.97-8.65,1.45-13.02-7.15,2-14.3,8.43-14.63,13.17,3.75,0,7.49,0,11.22,0,.62,0,1.24-.09,1.95-.14Zm73.81.01c-.71-5.01-9.56-12.66-14.69-12.77.49,4.24.98,8.47,1.48,12.77h13.21Zm.13,4.85h-13.47c-.15,2.01-.29,3.87-.44,5.87.91-.09,1.54-.1,2.15-.22,2.72-.54,5.41-1.44,8.24-.51.34.11,1-.12,1.25-.41,1.12-1.33,2.12-2.75,2.26-4.73Z"/>
    <path d="m97.77,99.04c2.21-2.2,4.33-4.34,6.47-6.46.51-.5,1.01-1.04,1.6-1.43.91-.6,1.83-.43,2.63.28.82.73,1.12,1.99.34,2.8-3.25,3.39-6.56,6.73-9.96,9.97-.79.75-2,.53-2.84-.28-1.55-1.49-3.11-2.98-4.55-4.57-1.01-1.11-.93-2.29-.02-3.2.89-.89,2.08-.9,3.21.04.55.45,1.02,1.01,1.54,1.5.45.42.93.81,1.58,1.36Z"/>
  </g>
</svg>