<?xml version="1.0" encoding="UTF-8"?>
<svg id="Layer_2" data-name="Layer 2" xmlns="http://www.w3.org/2000/svg" viewBox="0 0 117.17 113.07">
  <defs>
    <style>
      .cls-1 {
        fill: #0055a5;
      }
    </style>
  </defs>
  <g id="Layer_2-2" data-name="Layer 2">
    <g>
      <path class="cls-1" d="m85.24,35.9c0,5-.02,9.99.03,14.99,0,.43.4,1.13.76,1.25,3.55,1.13,5.93,3.58,7.87,6.62,2.42,3.8,4.89,7.58,7.37,11.34.31.46.83.86,1.34,1.1,2.62,1.25,5.28,2.43,7.91,3.66,4.35,2.03,6.59,5.46,6.63,10.25.02,3.02.05,6.05-.24,9.04-.45,4.84-5.42,9.08-10.27,9.03-.15,0-.3,0-.45-.01-2.32-.07-2.28-.05-3.25,1.99-2.14,4.54-5.78,7.08-10.72,7.8-5.82.84-12.32-3.35-14.01-8.97-.19-.65-.51-.88-1.19-.88-12.58.02-25.16.03-37.73.02-1.02,0-1.4.38-1.78,1.35-1.77,4.5-5.21,7.07-9.84,8.28-5.5,1.43-12.78-2.18-14.96-8.2-.38-1.06-.96-1.36-1.95-1.38-4.49-.1-7.57-2.44-9.6-6.25-.55-1.02-.93-2.24-.99-3.39-.16-2.71-.26-5.45-.08-8.15.34-5.17,3.45-8.74,8.49-10.11,5.24-1.42,10.48-2.86,15.73-4.25,1.1-.29,1.91-.81,2.6-1.75,1.71-2.35,3.51-4.64,5.3-6.93.57-.73.75-1.33.28-2.3-.46-.96-.56-2.16-.56-3.26-.03-13.39-.02-26.78-.02-40.17,0-2.87.09-5.75-.03-8.61-.16-3.99,3.25-7.31,6.83-7.73,1.07-.12,2.15-.24,3.23-.24C48.85,0,55.75.03,62.66,0c1.51,0,2.7.45,3.81,1.5,5.63,5.34,11.29,10.65,17.01,15.89,1.4,1.28,1.92,2.68,1.89,4.52-.08,4.66-.03,9.32-.03,13.99-.03,0-.07,0-.1,0ZM5.17,89.18h0c0,.86,0,1.72,0,2.57,0,3.3,1.74,5.46,4.97,6.2,1.36.31,1.49.2,1.87-1.12,2.13-7.36,8.09-11.72,16-10.25,5.4,1.01,8.78,4.71,10.11,10.06.31,1.23.8,1.47,1.95,1.46,10.04-.04,20.09-.02,30.13-.03,2.13,0,4.26.02,6.38-.04.36-.01.97-.39,1.01-.67.88-5.48,6.22-10.81,12.66-11.05,6.28-.24,12.13,3.97,13.53,10.1q.39,1.71,2.18,1.65c3.35-.1,5.88-2.47,6.05-5.8.12-2.23.07-4.48.1-6.71.03-2.83-1.18-4.82-3.82-5.98-2.66-1.17-5.24-2.52-7.91-3.65-1.57-.66-2.61-1.73-3.49-3.13-2.56-4.07-5.15-8.12-7.82-12.12-.67-1-1.62-1.84-2.52-2.66-.57-.51-1.03-.43-1.2.49-.14.75-.39,1.52-.77,2.18-1.91,3.31-4.79,4.72-8.63,4.7-11.46-.08-22.92,0-34.38-.02-1.3,0-2.6-.17-3.88-.4-.79-.15-1.24.07-1.7.67-2.02,2.68-4.02,5.38-6.17,7.95-.72.86-1.81,1.63-2.87,1.95-5.71,1.68-11.47,3.18-17.2,4.79-3.12.87-4.51,2.79-4.53,6.07,0,.93,0,1.87,0,2.8Zm31.79-56.71h0c0,7.98,0,15.97,0,23.95,0,2.48,1.31,3.81,3.8,3.81,11.68.01,23.37.01,35.05-.02,3.5-.01,4.48-1.1,4.48-4.61,0-10.11,0-20.22.01-30.33,0-1.53-.04-1.6-1.55-1.61-4.18-.02-8.36-.02-12.54-.03-2.81,0-5.12-2.13-5.18-4.92-.09-4.02-.06-8.05-.09-12.08-.01-1.56-.02-1.57-1.54-1.57-5.64,0-11.27,0-16.91.01-.82,0-1.64.06-2.45.18-2.49.35-3.1,1.05-3.1,3.59,0,7.87,0,15.74,0,23.61Zm53.79,75.27c4.29.11,8.24-3.72,8.37-8.11.13-4.26-3.76-8.18-8.18-8.25-4.56-.08-8.4,3.48-8.49,7.89-.1,4.59,3.6,8.36,8.3,8.48Zm-57.46-8.18c.01-4.64-3.59-8.12-8.36-8.18-4.1-.05-8.14,3.63-8.2,8.05-.06,4.09,3.81,8.39,8.49,8.32,3.62-.05,8.25-3.26,8.07-8.19ZM66.23,8.39c-.06.69-.12,1.08-.12,1.47-.01,2.5.03,4.99-.05,7.49-.03,1.01.4,1.19,1.26,1.18,2.79-.02,5.58,0,8.38.01.31,0,.62-.06,1.14-.11-3.58-3.38-6.98-6.6-10.6-10.03Z"/>
      <path class="cls-1" d="m58.18,44.73c-4.29,0-8.58.03-12.87-.01-1.52-.01-2.18-.62-2.53-2.03-.33-1.31.43-2.57,1.76-2.87.4-.09.81-.15,1.21-.15,8.29,0,16.57-.03,24.86.02.77,0,1.67.21,2.29.64.94.65,1.1,1.74.71,2.82-.38,1.06-1.19,1.59-2.32,1.59-4.37,0-8.73,0-13.1,0,0,0,0,0,0,0Z"/>
      <path class="cls-1" d="m58.3,54.6c-3.73,0-7.46.02-11.19-.01-.89,0-1.79-.09-2.65-.3-1.26-.31-1.94-1.46-1.75-2.73.2-1.35.92-2.04,2.35-2.04,8.73-.02,17.46-.02,26.18,0,1.46,0,2.31.72,2.48,1.92.21,1.49-.45,2.57-1.9,2.95-.64.17-1.32.19-1.99.19-3.84.02-7.68,0-11.53,0h0Z"/>
      <path class="cls-1" d="m50.75,30.02c1.79,0,3.58,0,5.37,0,1.59,0,2.51.83,2.59,2.29.09,1.56-.81,2.65-2.43,2.76-1.41.09-2.83.03-4.25.03-1.9,0-3.81.04-5.71-.01-.73-.02-1.49-.15-2.17-.41-1.08-.4-1.66-1.57-1.45-2.61.25-1.22,1.09-2,2.33-2.02,1.9-.04,3.8,0,5.71,0v-.02Z"/>
      <g id="Layer_1-2" data-name="Layer 1-2">
        <path class="cls-1" d="m74.48,77.7c-1.11,0-2.23.06-3.34-.01-1.49-.1-2.27-.91-2.26-2.22,0-1.23.67-2.12,2.04-2.19,2.38-.12,4.77-.12,7.15-.02,1.41.06,2.27,1.14,2.19,2.34-.08,1.23-.95,2.01-2.44,2.09-1.11.06-2.23.01-3.34.01h0Z"/>
        <path class="cls-1" d="m29.92,99.34c.01,2.77-2.11,4.97-4.86,5.03-2.78.06-5.09-2.24-5.06-5.03.03-2.74,2.24-4.93,4.98-4.93s4.93,2.16,4.94,4.93Zm-3.23.09c.03-.89-.86-1.77-1.75-1.75-.84.02-1.64.82-1.67,1.66-.02.84.72,1.67,1.57,1.75.89.08,1.81-.74,1.84-1.65h0Z"/>
        <path class="cls-1" d="m95.68,99.34c.01,2.77-2.11,4.97-4.86,5.03-2.78.06-5.09-2.24-5.06-5.03.03-2.74,2.24-4.93,4.98-4.93s4.93,2.16,4.94,4.93Zm-3.23.09c.03-.89-.86-1.77-1.75-1.75-.84.02-1.64.82-1.67,1.66-.02.84.72,1.67,1.57,1.75.89.08,1.81-.74,1.84-1.65h0Z"/>
      </g>
    </g>
  </g>
</svg>