<?xml version="1.0" encoding="UTF-8"?>
<svg id="Layer_1" data-name="Layer 1" xmlns="http://www.w3.org/2000/svg" viewBox="0 0 446.88 407.93">
  <defs>
    <style>
      .cls-1, .cls-2, .cls-3, .cls-4, .cls-5 {
        fill: #0055a5;
      }

      .cls-2 {
        stroke-width: 1px;
      }

      .cls-2, .cls-6, .cls-7, .cls-8, .cls-9, .cls-3, .cls-10, .cls-4, .cls-11, .cls-12, .cls-5, .cls-13, .cls-14, .cls-15, .cls-16, .cls-17, .cls-18, .cls-19, .cls-20 {
        stroke: #263238;
      }

      .cls-2, .cls-6, .cls-7, .cls-8, .cls-9, .cls-3, .cls-10, .cls-4, .cls-11, .cls-12, .cls-5, .cls-13, .cls-14, .cls-15, .cls-17, .cls-18, .cls-19, .cls-20 {
        stroke-linecap: round;
        stroke-linejoin: round;
      }

      .cls-6 {
        stroke-width: 1px;
      }

      .cls-6, .cls-9, .cls-10, .cls-12, .cls-14, .cls-21 {
        fill: #fff;
      }

      .cls-7 {
        fill: #bababa;
      }

      .cls-8 {
        stroke-width: 1px;
      }

      .cls-8, .cls-19, .cls-22 {
        fill: #263238;
      }

      .cls-9 {
        stroke-width: 1px;
      }

      .cls-3 {
        stroke-width: 1px;
      }

      .cls-10 {
        stroke-width: 1px;
      }

      .cls-11 {
        fill: #999;
      }

      .cls-5 {
        stroke-width: 1px;
      }

      .cls-13 {
        fill: #b5b5b5;
      }

      .cls-14, .cls-17 {
        stroke-width: 2px;
      }

      .cls-15 {
        fill: #c2c2c2;
      }

      .cls-16 {
        stroke-miterlimit: 10;
      }

      .cls-16, .cls-17, .cls-18 {
        fill: none;
      }

      .cls-21 {
        isolation: isolate;
        opacity: .7;
      }

      .cls-20 {
        fill: #7d7d7d;
      }

      .cls-23 {
        fill: #6e6e6e;
      }
    </style>
  </defs>
  <g id="freepik--background-simple--inject-4">
    <path class="cls-1" d="m302.96,5.35s-73.45-21.63-146,22.12C84.41,71.22,47.47,152.79,15.74,218.25c-31.73,65.46-14.15,129.57,40.82,156.5,54.97,26.93,92.77-18.6,170.17-24.54s98.14,3.72,162.63-41.6,76.76-145.46,26.59-216.64S302.96,5.35,302.96,5.35Z"/>
    <path class="cls-21" d="m302.96,5.35s-73.45-21.63-146,22.12C84.41,71.22,47.47,152.79,15.74,218.25c-31.73,65.46-14.15,129.57,40.82,156.5,54.97,26.93,92.77-18.6,170.17-24.54s98.14,3.72,162.63-41.6,76.76-145.46,26.59-216.64S302.96,5.35,302.96,5.35Z"/>
  </g>
  <g id="freepik--Clouds--inject-4">
    <path class="cls-16" d="m107.12,41.19c-2.02,2.2-3.45,4.89-4.14,7.8-3.1-4.18-8.83-5.4-13.36-2.83-.94-11.11-10.71-19.35-21.82-18.41-8.89.75-16.23,7.25-18.06,15.98-4.91-4.84-12.74-5.06-17.91-.49"/>
    <path class="cls-16" d="m162.14,19.9c-13.94-2.18-27.17,6.89-30.16,20.68-5.63-5.54-14.29-6.58-21.06-2.51"/>
    <path class="cls-16" d="m177.11,27.67c-1.86-1.94-4.01-3.58-6.37-4.88"/>
    <path class="cls-16" d="m167.52,53.58h49.22c-2.46-4.08-7.77-5.39-11.85-2.93-.28.17-.54.35-.8.55-2.45-7.11-10.2-10.88-17.31-8.43-.78.27-1.54.61-2.25,1.02-.43-4.83-2.17-9.45-5.05-13.35"/>
    <path class="cls-16" d="m29.8,45.58c-1.56,2.21-2.39,4.85-2.39,7.56v.49h130.42"/>
    <path class="cls-16" d="m204.4,62.34c-4.97-4.24-12.44-3.65-16.68,1.31-1.28,1.49-2.16,3.28-2.57,5.21-3.03-2.98-7.91-2.95-10.89.08-.99,1.01-1.69,2.27-2.01,3.65-.86-1.17-2.23-1.85-3.68-1.85-.79,0-1.57.21-2.26.59-.52-4.94-4.95-8.53-9.89-8.01-3.82.4-6.96,3.18-7.83,6.93-2.3-2.26-6.01-2.23-8.27.07-1.07,1.09-1.68,2.56-1.68,4.1,0,.07,0,.14,0,.21h84.2c-1.12-1.8-3.49-2.36-5.29-1.24-.12.07-.23.15-.34.24-.83-2.45-3.13-4.1-5.72-4.08-1.05,0-2.08.27-3,.78-.08-.88-.26-1.76-.53-2.6"/>
    <path class="cls-16" d="m358.43,214.58c-1.52,1.64-2.58,3.64-3.09,5.82-1.46-1.96-3.76-3.11-6.2-3.11-1.33,0-2.64.34-3.79,1-.77-8.3-8.12-14.41-16.43-13.64-6.56.61-11.96,5.39-13.36,11.82-3.67-3.61-9.51-3.78-13.38-.37"/>
    <path class="cls-16" d="m399.55,198.67c-1.02-.16-2.06-.24-3.09-.24-9.37,0-17.48,6.55-19.45,15.71-4.21-4.14-10.69-4.91-15.75-1.87"/>
    <path class="cls-16" d="m410.74,204.48c-1.41-1.45-3.02-2.68-4.8-3.65"/>
    <path class="cls-16" d="m403.57,223.84h36.77c-1.85-3.05-5.82-4.02-8.87-2.17-.2.12-.39.25-.58.39-1.86-5.3-7.66-8.09-12.96-6.23-.57.2-1.13.45-1.66.75-.32-3.62-1.63-7.08-3.78-10"/>
    <path class="cls-16" d="m300.64,217.83c-1.16,1.66-1.78,3.63-1.78,5.65v.36h97.45"/>
    <path class="cls-16" d="m431.13,230.39c-1.6-1.37-3.63-2.12-5.73-2.11-4.18,0-7.78,2.92-8.66,7-2.26-2.23-5.91-2.2-8.13.07-.74.75-1.26,1.69-1.5,2.72-.65-.87-1.67-1.38-2.76-1.38-.59,0-1.17.15-1.68.44-.32-3.69-3.58-6.42-7.27-6.1-2.94.26-5.37,2.41-5.98,5.3-1.71-1.7-4.47-1.68-6.17.03-.81.82-1.27,1.93-1.26,3.08,0,.05,0,.11,0,.16h62.91c-.81-1.35-2.55-1.8-3.91-.99-.1.06-.2.13-.29.2-.65-1.8-2.36-3-4.28-3-.78,0-1.54.2-2.22.59-.06-.66-.19-1.32-.4-1.95"/>
  </g>
  <g id="freepik--Binder--inject-4">
    <rect class="cls-19" x="71.55" y="118.13" width="136.48" height="201.52"/>
    <rect class="cls-12" x="80.33" y="127.9" width="118.92" height="182.2"/>
    <path class="cls-20" d="m116.37,111.9h46.84c3.66,0,6.63,2.97,6.63,6.63h0v14.11h-60.1v-14.06c-.03-3.66,2.92-6.65,6.58-6.68.02,0,.03,0,.05,0Z"/>
    <path class="cls-20" d="m135.74,103.42h8c3.93-.04,7.16,3.11,7.2,7.04,0,.04,0,.08,0,.12v1.3h-22.29v-1.3c-.02-3.93,3.15-7.14,7.08-7.16,0,0,0,0,.01,0Z"/>
    <circle class="cls-19" cx="169.83" cy="156.75" r="19.24"/>
    <polygon class="cls-4" points="183.13 151.94 174.92 151.94 174.92 143.74 165.3 143.74 165.3 151.94 157.1 151.94 157.1 161.56 165.3 161.56 165.3 169.77 174.92 169.77 174.92 161.56 183.13 161.56 183.13 151.94"/>
    <line class="cls-18" x1="90.61" y1="156.19" x2="137.01" y2="156.19"/>
    <line class="cls-18" x1="90.61" y1="165.81" x2="137.01" y2="165.81"/>
    <line class="cls-18" x1="90.61" y1="197.5" x2="188.5" y2="197.5"/>
    <rect class="cls-18" x="91.18" y="206.55" width="11.32" height="11.88"/>
    <rect class="cls-18" x="143.8" y="206.55" width="11.32" height="11.88"/>
    <line class="cls-18" x1="107.02" y1="218.43" x2="134.75" y2="218.43"/>
    <line class="cls-18" x1="159.64" y1="218.43" x2="187.37" y2="218.43"/>
    <rect class="cls-18" x="91.18" y="229.75" width="11.32" height="11.88"/>
    <rect class="cls-18" x="143.8" y="229.75" width="11.32" height="11.88"/>
    <line class="cls-18" x1="107.02" y1="241.63" x2="134.75" y2="241.63"/>
    <line class="cls-18" x1="159.64" y1="241.63" x2="187.37" y2="241.63"/>
    <rect class="cls-18" x="91.18" y="252.95" width="11.32" height="11.88"/>
    <rect class="cls-18" x="143.8" y="252.95" width="11.32" height="11.88"/>
    <line class="cls-18" x1="107.02" y1="264.83" x2="134.75" y2="264.83"/>
    <line class="cls-18" x1="159.64" y1="264.83" x2="187.37" y2="264.83"/>
    <rect class="cls-18" x="91.18" y="276.15" width="11.32" height="11.88"/>
    <rect class="cls-18" x="143.8" y="276.15" width="11.32" height="11.88"/>
    <line class="cls-18" x1="107.02" y1="288.03" x2="134.75" y2="288.03"/>
    <line class="cls-18" x1="159.64" y1="288.03" x2="187.37" y2="288.03"/>
  </g>
  <g id="freepik--Money--inject-4">
    <rect class="cls-4" x="226.09" y="62.31" width="104.49" height="196.26"/>
    <path class="cls-12" d="m319.87,85.76c-5.55,0-10.05-4.5-10.05-10.05h-63.63c0,5.55-4.5,10.05-10.05,10.05v148.7c5.55,0,10.05,4.5,10.05,10.05v.67h63.71v-.67c0-5.55,4.5-10.05,10.05-10.05h.67V85.72c-.3.02-.52.04-.75.04Zm-41.53,105.16c-16.83,0-30.48-13.65-30.48-30.48s13.65-30.48,30.48-30.48c16.83,0,30.48,13.65,30.48,30.48s-13.65,30.48-30.48,30.48h0Z"/>
    <rect class="cls-5" x="194.44" y="117.23" width="196.26" height="104.49" transform="translate(80 432.42) rotate(-81.13)"/>
    <path class="cls-12" d="m345.11,102.11c-5.46-.83-9.21-5.93-8.38-11.39,0-.03,0-.05.01-.08l-62.87-9.82c-.86,5.48-6,9.23-11.48,8.38l-22.95,146.92c5.48.86,9.22,5.98,8.38,11.46,0,.22-.09.44-.14.65l62.94,9.83c0-.22,0-.44.07-.66.82-5.46,5.92-9.22,11.38-8.4.03,0,.07.01.1.02.22,0,.44.09.66.13l23-147c-.27.01-.5,0-.72-.04Zm-57.26,97.47c-16.63-2.6-28.01-18.19-25.41-34.82,2.6-16.63,18.19-28.01,34.82-25.41,16.63,2.6,28.01,18.19,25.41,34.82-2.59,16.63-18.17,28.01-34.8,25.41,0,0-.01,0-.02,0Z"/>
    <rect class="cls-3" x="212.05" y="133.82" width="196.26" height="104.49" transform="translate(22.92 405.87) rotate(-68.38)"/>
    <path class="cls-12" d="m376.29,131.97c-5.13-2.05-7.65-7.85-5.64-13l-59.16-23.46c-2.02,5.14-7.82,7.67-12.96,5.65-.01,0-.03,0-.04-.01l-54.8,138.24c5.14,2.02,7.67,7.82,5.65,12.96,0,.01,0,.03-.01.04-.09.21-.18.41-.28.61l59.22,23.48c.07-.21.13-.43.21-.64,2.05-5.15,7.89-7.67,13.05-5.63.21.08.41.18.61.27l54.82-138.3c-.23-.06-.46-.13-.67-.21Zm-77.36,82.46c-15.65-6.2-23.31-23.91-17.11-39.56,6.2-15.65,23.91-23.31,39.56-17.11s23.31,23.91,17.11,39.56c0,0,0,0,0,.01-6.21,15.64-23.91,23.29-39.56,17.1Z"/>
    <rect class="cls-2" x="226.43" y="155.67" width="196.26" height="104.49" transform="translate(-32.95 351.97) rotate(-54.59)"/>
    <path class="cls-12" d="m401.68,171.11c-4.51-3.18-5.59-9.42-2.41-13.94.02-.02.03-.04.05-.06l-51.87-36.87c-3.21,4.52-9.48,5.58-14,2.37l-86.17,121.18c4.51,3.18,5.59,9.42,2.41,13.94-.02.02-.03.04-.05.06-.13.19-.27.35-.41.53l51.91,36.91c.12-.19.23-.38.37-.57,3.18-4.51,9.42-5.59,13.94-2.41.02.02.04.03.06.05.18.13.35.27.52.41l86.21-121.25c-.18-.1-.37-.22-.56-.35Zm-94.78,61.65c-13.72-9.75-16.94-28.78-7.18-42.5s28.78-16.94,42.5-7.18c13.72,9.75,16.94,28.78,7.18,42.5,0,0,0,0,0,0-9.75,13.72-28.78,16.93-42.5,7.18Z"/>
    <circle class="cls-12" cx="250.56" cy="204.95" r="64.98"/>
    <line class="cls-18" x1="198.71" y1="166.42" x2="205.7" y2="166.42"/>
    <line class="cls-18" x1="201.99" y1="162.17" x2="208.53" y2="162.17"/>
    <line class="cls-18" x1="205.11" y1="158.87" x2="211.6" y2="158.87"/>
    <line class="cls-18" x1="209.13" y1="155.37" x2="214.85" y2="155.37"/>
    <line class="cls-18" x1="194.45" y1="172.79" x2="200.98" y2="172.79"/>
    <line class="cls-18" x1="189.7" y1="182.93" x2="196.26" y2="182.93"/>
    <line class="cls-18" x1="186.44" y1="195.2" x2="193.43" y2="195.2"/>
    <line class="cls-18" x1="185.97" y1="208.89" x2="192.96" y2="208.89"/>
    <circle class="cls-12" cx="256.7" cy="204.95" r="64.98"/>
    <circle class="cls-10" cx="256.7" cy="204.94" r="51.75"/>
    <path class="cls-12" d="m256.74,153.2h-1c28.57.4,51.4,23.88,51.01,52.44-.39,28.01-23,50.62-51.01,51.01h1c28.58.4,52.07-22.45,52.46-51.03.4-28.58-22.45-52.07-51.03-52.46-.48,0-.96,0-1.44,0v.04Z"/>
    <path class="cls-12" d="m259.12,237.22c-.31.06-.54.33-.55.65l.09,4.19c.12.75-.39,1.46-1.15,1.58-.14.02-.29.02-.43,0h-5.49c-.75.12-1.46-.39-1.58-1.15-.02-.14-.02-.29,0-.43l.18-4.28c0-.32-.24-.6-.56-.65-10.6-1.3-16.75-7.72-16.75-16.65v-4c-.09-.78.48-1.49,1.26-1.58.11-.01.22-.01.33,0h9.67c1,0,1.59.47,1.59,1.21v1.3c0,4.75,3.07,8.84,9.39,8.84s8.47-3.63,8.47-7.35c0-6.6-12.1-7.63-21-13.4-5.77-3.53-9.77-8.09-9.77-16,0-9.77,6.05-16.66,16.75-18.24.32-.06.55-.33.56-.65l-.19-5c-.12-.76.4-1.47,1.16-1.59.14-.02.28-.02.42,0h5.31c.78-.09,1.49.48,1.58,1.26.01.11.01.22,0,.33l-.09,4.93c0,.32.24.6.56.65,11.16,1.21,17.49,8,17.49,17.59v3.07c.09.78-.46,1.49-1.24,1.58-.11.01-.23.01-.34,0h-9.77c-1,0-1.59-.37-1.59-.93v-.92c0-4.93-2.79-9.4-9.3-9.4-5.21,0-8.37,2.7-8.37,6.88,0,6.05,8.46,7,17.21,10.8,9.58,4.28,13.77,10.23,13.77,18.42,0,10.2-6.26,17.45-17.62,18.94Z"/>
    <path class="cls-22" d="m261.11,237.22c-.31.06-.54.33-.56.65l.09,4.19c.12.75-.39,1.46-1.15,1.58-.14.02-.29.02-.43,0h-5.49c-.75.12-1.46-.39-1.58-1.15-.02-.14-.02-.29,0-.43l.19-4.28c0-.32-.24-.59-.56-.65-10.61-1.3-16.75-7.72-16.75-16.65v-4c-.09-.78.46-1.49,1.24-1.58.11-.01.23-.01.34,0h9.68c1,0,1.58.47,1.58,1.21v1.3c0,4.75,3.07,8.84,9.4,8.84,5.95,0,8.47-3.63,8.47-7.35,0-6.6-12.1-7.63-21-13.4-5.77-3.53-9.77-8.09-9.77-16,0-9.77,6-16.66,16.74-18.24.32-.05.55-.33.56-.65l-.18-5c-.12-.76.4-1.47,1.16-1.59.14-.02.28-.02.42,0h5.23c.78-.09,1.49.46,1.58,1.24.01.12.01.24,0,.35l-.09,4.93c0,.32.24.59.56.65,11.16,1.21,17.49,8,17.49,17.59v3.07c.09.78-.46,1.49-1.24,1.58-.11.01-.23.01-.34,0h-9.77c-1,0-1.58-.37-1.58-.93v-.92c0-4.93-2.79-9.4-9.31-9.4-5.21,0-8.37,2.7-8.37,6.88,0,6.05,8.47,7,17.21,10.8,9.59,4.28,13.78,10.23,13.78,18.42.08,10.2-6.2,17.45-17.55,18.94Z"/>
  </g>
  <g id="freepik--House--inject-4">
    <polygon class="cls-11" points="93.82 407.31 32.31 407.31 32.31 340.52 61.21 310.62 93.82 340.52 93.82 407.31"/>
    <polygon class="cls-11" points="295.55 407.31 148.15 407.31 148.15 264.52 233.22 229 295.55 264.52 295.55 407.31"/>
    <rect class="cls-12" x="91.09" y="327.93" width="76.73" height="79.47"/>
    <rect class="cls-15" x="214.24" y="340.52" width="42.15" height="66.88"/>
    <rect class="cls-12" x="223.68" y="349.96" width="19.34" height="57.44"/>
    <rect class="cls-19" x="226.73" y="349.96" width="13.24" height="57.44"/>
    <rect class="cls-12" x="203.73" y="401.3" width="36.24" height="3.69"/>
    <rect class="cls-12" x="223.68" y="349.96" width="19.34" height="4.72"/>
    <rect class="cls-12" x="48.27" y="349.96" width="31.02" height="57.44"/>
    <rect class="cls-19" x="53.15" y="349.96" width="21.24" height="57.44"/>
    <rect class="cls-12" x="48.27" y="349.96" width="31.02" height="4.72"/>
    <rect class="cls-15" x="164.67" y="339.17" width="24.65" height="44.62"/>
    <polygon class="cls-12" points="373.17 407.31 267.22 407.31 267.22 264.52 319.57 229 373.17 264.52 373.17 407.31"/>
    <polygon class="cls-12" points="374.5 264.99 319.47 229.29 266.78 265.3 266.78 268.78 319.85 232.77 374.5 268.47 374.5 264.99"/>
    <polygon class="cls-19" points="306.04 238.18 261.07 310.09 267.22 310.88 314.03 234.15 373.17 321.4 376.32 321.27 317.32 230.53 306.04 238.18"/>
    <polygon class="cls-19" points="267.22 264.52 141.85 264.52 191.41 229 319.47 229.72 267.22 264.52"/>
    <rect class="cls-7" x="285.76" y="326.13" width="59.44" height="81.18"/>
    <rect class="cls-12" x="290.48" y="326.13" width="59.44" height="81.18"/>
    <rect class="cls-14" x="299.5" y="338.45" width="41.39" height="42.76"/>
    <rect class="cls-14" x="311.5" y="338.45" width="17.4" height="42.76"/>
    <rect class="cls-7" x="279.24" y="322.5" width="72.48" height="7.25"/>
    <rect class="cls-12" x="283.96" y="322.5" width="72.48" height="7.25"/>
    <rect class="cls-12" x="241.25" y="339.17" width="3.68" height="39.14"/>
    <rect class="cls-12" x="251.5" y="339.17" width="3.68" height="39.14"/>
    <rect class="cls-12" x="239.97" y="377.77" width="6.09" height="4.39"/>
    <rect class="cls-12" x="250.29" y="377.77" width="6.09" height="4.39"/>
    <rect class="cls-12" x="239.97" y="343.08" width="6.09" height="2.47"/>
    <rect class="cls-12" x="250.29" y="343.08" width="6.09" height="2.47"/>
    <rect class="cls-12" x="237.05" y="381.79" width="21.53" height="25.52"/>
    <rect class="cls-12" x="189.32" y="339.17" width="3.68" height="39.14"/>
    <rect class="cls-12" x="199.57" y="339.17" width="3.68" height="39.14"/>
    <rect class="cls-12" x="188.04" y="377.77" width="6.09" height="4.39"/>
    <rect class="cls-12" x="198.36" y="377.77" width="6.09" height="4.39"/>
    <rect class="cls-12" x="188.04" y="343.08" width="6.09" height="2.47"/>
    <rect class="cls-12" x="198.36" y="343.08" width="6.09" height="2.47"/>
    <rect class="cls-12" x="185.13" y="381.79" width="21.53" height="25.52"/>
    <rect class="cls-11" x="159.41" y="381.79" width="26.25" height="25.52"/>
    <polygon class="cls-12" points="258.59 342.8 177.41 342.8 191.18 335.55 258.59 335.55 258.59 342.8"/>
    <line class="cls-18" x1="299.9" y1="349.32" x2="340.49" y2="349.32"/>
    <line class="cls-18" x1="299.9" y1="359.47" x2="340.49" y2="359.47"/>
    <line class="cls-18" x1="299.9" y1="369.62" x2="340.49" y2="369.62"/>
    <polygon class="cls-19" points="57.62 309.24 28.2 341.15 30.66 341.15 59.55 310.62 57.62 309.24"/>
    <polygon class="cls-19" points="88.73 339.73 169.39 339.73 229.82 309.24 57.62 309.24 88.73 339.73"/>
    <polygon class="cls-19" points="271.81 309.24 225.1 309.24 141.85 339.73 183.55 339.73 271.81 309.24"/>
    <path class="cls-12" d="m376.32,312.63l-54.87-84.19c-.7-1.09-2.15-1.42-3.24-.72-.31.2-.57.46-.76.78l-49.37,81.54-95.54,30.74v4.93l97.78-31.41c.55-.16,1.02-.52,1.33-1l47.89-79.12,56.78,87.12v-8.67Z"/>
    <rect class="cls-17" x="235.88" y="269.83" width="16.67" height="27.54"/>
    <line class="cls-18" x1="244.21" y1="270.56" x2="244.21" y2="296.65"/>
    <line class="cls-18" x1="252.18" y1="283.6" x2="236.24" y2="283.6"/>
    <rect class="cls-17" x="118.57" y="350.35" width="16.67" height="27.54"/>
    <line class="cls-18" x1="126.9" y1="351.07" x2="126.9" y2="377.17"/>
    <line class="cls-18" x1="134.88" y1="364.12" x2="118.93" y2="364.12"/>
    <rect class="cls-17" x="310.55" y="269.31" width="16.67" height="27.54"/>
    <line class="cls-18" x1="318.88" y1="270.03" x2="318.88" y2="296.13"/>
    <line class="cls-18" x1="326.85" y1="283.08" x2="310.91" y2="283.08"/>
    <rect class="cls-17" x="200.24" y="269.83" width="16.67" height="27.54"/>
    <line class="cls-18" x1="208.57" y1="270.56" x2="208.57" y2="296.65"/>
    <line class="cls-18" x1="216.55" y1="283.6" x2="200.6" y2="283.6"/>
    <rect class="cls-17" x="164.6" y="269.83" width="16.67" height="27.54"/>
    <line class="cls-18" x1="172.94" y1="270.56" x2="172.94" y2="296.65"/>
    <line class="cls-18" x1="180.91" y1="283.6" x2="164.96" y2="283.6"/>
    <polygon class="cls-23" points="107.23 328.72 97.79 328.72 86.78 317.7 96.22 317.7 107.23 328.72"/>
    <polygon class="cls-23" points="136.34 328.72 126.9 328.72 115.89 317.7 125.33 317.7 136.34 328.72"/>
    <rect class="cls-13" x="54.23" y="358.61" width="3.42" height="11.02"/>
    <rect class="cls-13" x="58.03" y="358.61" width="3.42" height="11.02"/>
    <rect class="cls-13" x="61.83" y="358.61" width="3.43" height="11.02"/>
    <rect class="cls-13" x="65.64" y="358.61" width="3.43" height="11.02"/>
    <rect class="cls-13" x="69.44" y="358.61" width="3.42" height="11.02"/>
    <rect class="cls-12" x="87.94" y="340.16" width="84.6" height="5.55"/>
    <rect class="cls-7" x="140.79" y="340.16" width="31.75" height="5.55"/>
    <polygon class="cls-7" points="87.94 340.16 57.62 309.24 28.2 341.15 32.31 341.15 57.73 314.05 87.94 345.71 87.94 340.16"/>
    <rect class="cls-12" x="203.73" y="403.95" width="36.24" height="3.45"/>
    <rect class="cls-7" x="141.37" y="265.3" width="125.41" height="3.47"/>
  </g>
  <g id="freepik--Car--inject-4">
    <rect class="cls-19" x="121.03" y="372.97" width="8.88" height="5.55" rx="2.36" ry="2.36"/>
    <path class="cls-4" d="m151.67,359.27h36.36l18.51,13.7,31.83,5.55v16.66H95.86l-10.73-4.81v-6.3l44.42-9.25,18.95-14.48c.91-.69,2.02-1.07,3.17-1.07Z"/>
    <path class="cls-12" d="m158.05,374.82h-28.87l18.95-14.48c.91-.69,2.02-1.07,3.17-1.07h27.11l-20.36,15.55Z"/>
    <circle class="cls-9" cx="139.9" cy="396.65" r="10.73" transform="translate(-239.5 215.1) rotate(-45)"/>
    <circle class="cls-8" cx="143.26" cy="396.63" r="10.73" transform="translate(-140.06 84.27) rotate(-22.35)"/>
    <path class="cls-12" d="m148.79,396.66c0,3.07-2.48,5.55-5.55,5.55s-5.55-2.48-5.55-5.55c0-3.07,2.48-5.55,5.55-5.55h0c3.06,0,5.54,2.47,5.55,5.53,0,0,0,.01,0,.02Z"/>
    <path class="cls-19" d="m115.48,385.93c-.56,0-1.12.05-1.67.14-.55-.09-1.1-.14-1.66-.14-5.93-.18-10.88,4.48-11.06,10.41-.18,5.93,4.48,10.88,10.41,11.06.22,0,.44,0,.66,0,.56,0,1.11-.05,1.66-.15.55.1,1.11.15,1.67.15,5.93-.18,10.59-5.13,10.41-11.06-.17-5.67-4.73-10.23-10.41-10.41Z"/>
    <path class="cls-19" d="m197.29,385.93c-.56,0-1.12.05-1.67.14-.55-.09-1.11-.14-1.67-.14-5.93.18-10.59,5.13-10.41,11.06.17,5.67,4.73,10.23,10.41,10.41.56,0,1.12-.05,1.67-.15.55.1,1.11.15,1.67.15,5.93-.18,10.59-5.13,10.41-11.06-.17-5.67-4.73-10.23-10.41-10.41Z"/>
    <circle class="cls-6" cx="219.87" cy="396.7" r="10.73"/>
    <circle class="cls-8" cx="223.22" cy="396.62" r="10.73" transform="translate(-134.05 114.68) rotate(-22.35)"/>
    <path class="cls-12" d="m228.74,396.66c0,3.07-2.48,5.56-5.55,5.57s-5.56-2.48-5.57-5.55c0-3.07,2.48-5.56,5.55-5.57h.02c3.07,0,5.55,2.48,5.55,5.55Z"/>
    <path class="cls-4" d="m235.04,372.97l-16.38-12.13c-1.38-1.02-3.05-1.57-4.77-1.57h-35.48l-20.36,15.55-44.42,9.25v6.3l10.73,4.81h7.21c-.11-.55-.17-1.11-.17-1.67v-.37c.03-4.4,3.6-7.95,8-7.95h8.15c4.4,0,7.97,3.55,8,7.95v.37c0,.58-.07,1.13-.18,5.74h55.97c-.11-4.61-.17-5.16-.17-5.74v-.37c.03-4.38,3.57-7.92,7.95-7.95h8.15c4.4,0,7.97,3.55,8,7.95v.37c0,.56-.06,1.12-.18,1.67h11.84v-12.36c0-2.62-1.52-5.01-3.89-6.12l-8-3.73Z"/>
    <polygon class="cls-12" points="195.8 361.87 179.27 361.87 162.3 374.82 195.8 374.82 195.8 361.87"/>
    <path class="cls-12" d="m198.58,361.87h13.46c1.76,0,3.46.57,4.86,1.64l14.84,11.31h-33.16v-12.95Z"/>
    <rect class="cls-12" x="85.13" y="384.07" width="28.5" height="6.29"/>
    <rect class="cls-19" x="239.85" y="391.48" width="9.25" height="5.18"/>
    <rect class="cls-19" x="84.02" y="390.37" width="39.61" height="6.29"/>
    <rect class="cls-19" x="163.23" y="372.97" width="8.88" height="5.55" rx="2.36" ry="2.36"/>
    <rect class="cls-12" x="105.48" y="384.45" width="6.66" height="5.18"/>
    <rect class="cls-12" x="86.24" y="384.45" width="6.66" height="5.18"/>
    <line class="cls-18" x1="92.9" y1="386.3" x2="105.11" y2="386.3"/>
    <line class="cls-18" x1="92.9" y1="388.19" x2="105.11" y2="388.19"/>
    <line class="cls-17" x1="159.8" y1="392.95" x2="208.36" y2="392.95"/>
    <path class="cls-18" d="m196.92,360.52v35.9h-38v-4.27c0-2.53-.74-5.01-2.13-7.13l-1.17-1.78,6.59-5.9"/>
    <path class="cls-18" d="m232.12,375.58v8.15h-14.38c-1.91,0-3.73.76-5.08,2.11l-.82.82c-1.35,1.35-2.1,3.18-2.1,5.08v4.3h-10.74"/>
    <rect class="cls-19" x="191.23" y="378.73" width="4.51" height="2.58"/>
    <rect class="cls-19" x="226.23" y="378.73" width="4.51" height="2.58"/>
  </g>
  <g id="freepik--Plants--inject-4">
    <path class="cls-1" d="m382.52,407.2s-8.62-8.62-6.2-15.18,9,3.11,9,3.11c0,0,.69-15.18,5.52-15.18s3.8,12.76,3.8,12.76c0,0,2.75-3.45,5.86-1.38s.34,12.76.34,12.76c0,0,2.07-9.31,6.56-9.31s.34,12.07.34,12.07"/>
    <path class="cls-18" d="m380.46,406.85s-5.52-7.58-3.8-9,4.14,2.76,4.14,2.76c0,0-1.72-10,3.79-10.35s3.45,12.07,3.45,12.07c0,0,2.76-7.59,5.52-5.52s1.73,8.28,1.73,8.28c0,0,.34-5.17,3.79-5.17s5.52,4.13,5.52,4.13c0,0,3.1-5.17,5.52-3.44s0,6.55,0,6.55"/>
    <path class="cls-1" d="m273.26,407.2s-6.11-6.11-4.4-10.75,6.35,2.2,6.35,2.2c0,0,.49-10.76,3.91-10.76s2.69,9.05,2.69,9.05c0,0,2-2.45,4.16-1s.24,9,.24,9c0,0,1.47-6.6,4.64-6.6s.25,8.55.25,8.55"/>
    <path class="cls-18" d="m271.79,406.95s-3.91-5.37-2.68-6.35,2.93,2,2.93,2c0,0-1.22-7.09,2.69-7.33s2.44,8.55,2.44,8.55c0,0,1.95-5.38,3.91-3.91s1.22,5.86,1.22,5.86c0,0,.25-3.66,2.69-3.66s3.91,2.93,3.91,2.93c0,0,2.2-3.67,3.91-2.44s0,4.64,0,4.64"/>
    <path class="cls-1" d="m9.45,407.2s-6.4-6.4-4.61-11.27c1.79-4.87,6.66,2.3,6.66,2.3,0,0,.52-11.26,4.1-11.26s2.82,9.47,2.82,9.47c0,0,2-2.56,4.35-1s.26,9.47.26,9.47c0,0,1.53-6.91,4.86-6.91s.26,9,.26,9"/>
    <path class="cls-18" d="m7.92,406.94s-4.1-5.63-2.82-6.66c1.28-1.03,3.07,2.05,3.07,2.05,0,0-1.28-7.42,2.82-7.68s2.56,9,2.56,9c0,0,2-5.63,4.1-4.1s1.28,6.15,1.28,6.15c0,0,.26-3.84,2.82-3.84s4.1,3.07,4.1,3.07c0,0,2.3-3.84,4.09-2.56s0,4.87,0,4.87"/>
  </g>
  <g id="freepik--Floor--inject-4">
    <line class="cls-18" x1="2.74" y1="407.4" x2="413.74" y2="407.4"/>
  </g>
</svg>