<?xml version="1.0" encoding="UTF-8"?>
<svg id="Layer_2" data-name="Layer 2" xmlns="http://www.w3.org/2000/svg" viewBox="0 0 124 77.41">
  <defs>
    <style>
      .cls-1 {
        fill: #6d6e71;
        opacity:0.7;
      }
    </style>
  </defs>
  <g id="Layer_2-2" data-name="Layer 2">
    <g>
      <path class="cls-1" d="m64.51,9.95c-3.36,3.22-6.64,6.34-9.91,9.48-.31.3-.53.46-.94.11-5.56-4.84-12.04-6.25-19.18-4.98-8.21,1.46-14.13,6.1-17.73,13.52-2.43,5.01-2.82,10.37-1.77,15.87,1.76,9.15,9.93,17.46,19.63,18.87,3.91.57,7.76.53,11.54-.57,4.23-1.23,7.96-3.36,10.5-7.11,1.23-1.82,2.36-3.72,3.43-5.65.41-.73.55-1.62.75-2.46.03-.13-.29-.47-.47-.48-.78-.08-1.56-.09-2.34-.09-6.15-.03-12.31-.04-18.46-.06-.21,0-.42,0-.7,0v-13.33c.11-.02.23-.05.36-.05,11.71,0,23.43.02,35.14,0,.74,0,.91.24,1.03.94.91,5.31.3,10.54-.77,15.73-1.23,5.95-3.97,11.17-7.87,15.83-4.92,5.87-11.25,9.2-18.63,10.87-5.88,1.33-11.77,1.39-17.57.08-14.35-3.25-23.87-12.09-28.64-25.91C-.05,44.89-.42,38.97.44,33.05c.7-4.8,2.08-9.44,4.56-13.63C9.06,12.55,14.52,7.07,21.83,3.71,26.24,1.69,30.91.51,35.78.12c7.28-.58,14.15.88,20.68,4.04,2.98,1.44,5.54,3.51,8.05,5.79Z"/>
      <path class="cls-1" d="m101.63,23.18h11.14c0,.33,0,.62,0,.91,0,3.18,0,6.36-.03,9.54,0,.62.13.84.8.84,3.24-.03,6.48,0,9.71,0,.41,0,.75-.03.74.55-.03,3.48-.04,6.96-.05,10.43,0,.05-.03.1-.09.29-.27,0-.58,0-.89,0-3.1,0-6.21.02-9.31-.02-.72,0-.91.21-.9.92.04,3.13.02,6.26.02,9.38,0,.26,0,.53,0,.84h-11.06c0-2.51,0-4.98,0-7.46,0-.92-.11-1.84-.03-2.74.07-.81-.28-.95-.98-.94-2.35.03-4.69.01-7.04.01-1.02,0-2.04,0-3.13,0v-11.23c.21-.02.42-.05.62-.05,3.21,0,6.42-.03,9.63.02.82.01.98-.28.97-1.02-.07-3.15-.08-6.31-.11-9.46,0-.28,0-.56,0-.82Z"/>
    </g>
  </g>
</svg>