<?xml version="1.0" encoding="UTF-8"?>
<svg id="Layer_2" data-name="Layer 2" xmlns="http://www.w3.org/2000/svg" viewBox="0 0 124.87 82.81">
  <defs>
    <style>
      .cls-1 {
        fill: #6d6e71;
      }
    </style>
  </defs>
  <g id="Layer_2-2" data-name="Layer 2">
    <g>
      <path class="cls-1" d="m69.01,10.64c-3.6,3.44-7.1,6.78-10.6,10.14-.33.32-.57.49-1,.12-5.95-5.18-12.88-6.69-20.51-5.33-8.78,1.56-15.12,6.52-18.97,14.46-2.6,5.36-3.02,11.09-1.89,16.97,1.88,9.79,10.62,18.68,21,20.19,4.18.61,8.31.57,12.34-.61,4.53-1.31,8.51-3.59,11.23-7.6,1.32-1.95,2.52-3.98,3.67-6.04.44-.79.59-1.74.8-2.63.03-.13-.31-.5-.51-.52-.83-.08-1.67-.09-2.51-.1-6.58-.03-13.16-.05-19.75-.07-.23,0-.45,0-.75,0v-14.26c.11-.02.25-.06.38-.06,12.53,0,25.06.02,37.59,0,.79,0,.97.25,1.1,1,.98,5.68.32,11.28-.83,16.83-1.31,6.36-4.25,11.95-8.42,16.93-5.26,6.28-12.03,9.84-19.93,11.63-6.29,1.42-12.59,1.49-18.8.08-15.35-3.48-25.53-12.93-30.64-27.72C-.06,48.03-.45,41.69.47,35.35c.75-5.14,2.23-10.1,4.88-14.58C9.69,13.43,15.53,7.56,23.36,3.97,28.07,1.81,33.07.55,38.27.13c7.79-.62,15.14.94,22.12,4.32,3.19,1.54,5.93,3.75,8.61,6.19Z"/>
      <path class="cls-1" d="m100.94,24.8h11.92c0,.36,0,.67,0,.97,0,3.4,0,6.81-.03,10.21,0,.67.14.9.85.9,3.46-.03,6.93,0,10.39,0,.44,0,.8-.03.8.59-.03,3.72-.04,7.44-.06,11.16,0,.05-.03.11-.1.31-.28,0-.62,0-.95,0-3.32,0-6.64.02-9.96-.02-.77,0-.98.22-.97.98.04,3.35.02,6.69.02,10.04,0,.28,0,.56,0,.9h-11.83c0-2.69,0-5.33,0-7.98,0-.98-.11-1.96-.04-2.94.07-.87-.3-1.02-1.04-1.01-2.51.03-5.02.01-7.53.01-1.09,0-2.19,0-3.35,0v-12.01c.23-.02.45-.05.67-.05,3.43,0,6.87-.03,10.3.02.88.01,1.05-.3,1.03-1.09-.07-3.37-.08-6.75-.12-10.12,0-.3,0-.6,0-.88Z"/>
    </g>
  </g>
</svg>