<?xml version="1.0" encoding="utf-8"?>
<!-- Generator: Adobe Illustrator 27.5.0, SVG Export Plug-In . SVG Version: 6.00 Build 0)  -->
<svg version="1.1" id="Layer_2_00000011020568127456355840000002279593879213606286_"
	 xmlns="http://www.w3.org/2000/svg" xmlns:xlink="http://www.w3.org/1999/xlink" x="0px" y="0px" viewBox="0 0 125.6 127.7"
	 style="enable-background:new 0 0 125.6 127.7;" xml:space="preserve">
<style type="text/css">
	.st0{fill:#6D6E71; opacity:0.7; }
    .st0:hover{fill:#6D6E71; opacity:0.2;}
</style>
<path class="st0" d="M62.8,31.7C45,31.7,30.6,46,30.6,63.9S45,96,62.8,96S95,81.7,95,63.9S80.6,31.7,62.8,31.7z M62.8,84.8
	c-11.5,0-20.9-9.4-20.9-20.9s9.4-20.9,20.9-20.9s20.9,9.4,20.9,20.9S74.3,84.8,62.8,84.8L62.8,84.8z M103.8,30.4
	c0,4.2-3.4,7.5-7.5,7.5c-4.2,0-7.5-3.4-7.5-7.5s3.4-7.5,7.5-7.5C100.4,22.8,103.8,26.2,103.8,30.4z M125.1,38
	c-0.5-10.1-2.8-19-10.1-26.3C107.6,4.3,98.7,2,88.7,1.5c-10.4-0.6-41.4-0.6-51.8,0C26.9,2,17.9,4.3,10.6,11.6S0.9,27.9,0.4,37.9
	c-0.6,10.4-0.6,41.4,0,51.8c0.5,10.1,2.8,19,10.1,26.3c7.4,7.3,16.2,9.6,26.3,10.1c10.4,0.6,41.4,0.6,51.8,0
	c10.1-0.5,19-2.8,26.3-10.1c7.3-7.3,9.6-16.2,10.1-26.3C125.7,79.4,125.7,48.3,125.1,38L125.1,38z M111.7,100.9
	c-2.2,5.5-6.4,9.7-11.9,11.9c-8.3,3.3-27.9,2.5-37,2.5s-28.8,0.7-37-2.5c-5.5-2.2-9.7-6.4-11.9-11.9c-3.3-8.3-2.5-27.9-2.5-37
	s-0.7-28.8,2.5-37c2.2-5.5,6.4-9.7,11.9-11.9c8.3-3.3,27.9-2.5,37-2.5s28.8-0.7,37,2.5c5.5,2.2,9.7,6.4,11.9,11.9
	c3.3,8.3,2.5,27.9,2.5,37S115,92.6,111.7,100.9z"/>
</svg>
