<?xml version="1.0" encoding="UTF-8"?>
<svg id="Layer_2" data-name="Layer 2" xmlns="http://www.w3.org/2000/svg" viewBox="0 0 125.56 125.53">
  <defs>
    <style>
  
    </style>
  </defs>
  <g id="Layer_2-2" data-name="Layer 2">
    <path class="cls-1" d="m62.79,30.58c-17.82,0-32.18,14.37-32.18,32.18s14.37,32.18,32.18,32.18,32.18-14.37,32.18-32.18-14.37-32.18-32.18-32.18Zm0,53.11c-11.51,0-20.92-9.38-20.92-20.92s9.38-20.92,20.92-20.92,20.92,9.38,20.92,20.92-9.41,20.92-20.92,20.92h0Zm41.01-54.43c0,4.17-3.36,7.51-7.51,7.51s-7.51-3.36-7.51-7.51,3.36-7.51,7.51-7.51,7.51,3.36,7.51,7.51Zm21.32,7.62c-.48-10.06-2.77-18.96-10.14-26.3C107.64,3.24,98.73.95,88.68.44,78.31-.15,47.25-.15,36.88.44c-10.03.48-18.94,2.77-26.3,10.11C3.21,17.89.95,26.8.44,36.86-.15,47.22-.15,78.28.44,88.65c.48,10.06,2.77,18.96,10.14,26.3,7.37,7.34,16.25,9.64,26.3,10.14,10.36.59,41.43.59,51.79,0,10.06-.48,18.96-2.77,26.3-10.14,7.34-7.34,9.64-16.25,10.14-26.3.59-10.36.59-41.4,0-51.76h0Zm-13.39,62.89c-2.18,5.49-6.41,9.72-11.93,11.93-8.26,3.28-27.87,2.52-37,2.52s-28.77.73-37-2.52c-5.49-2.18-9.72-6.41-11.93-11.93-3.28-8.26-2.52-27.87-2.52-37s-.73-28.77,2.52-37c2.18-5.49,6.41-9.72,11.93-11.93,8.26-3.28,27.87-2.52,37-2.52s28.77-.73,37,2.52c5.49,2.18,9.72,6.41,11.93,11.93,3.28,8.26,2.52,27.87,2.52,37s.76,28.77-2.52,37Z"/>
  </g>
</svg>