<?xml version="1.0" encoding="UTF-8"?>
<svg id="Layer_2" data-name="Layer 2" xmlns="http://www.w3.org/2000/svg" viewBox="0 0 125.56 95.83">
  <defs>
    <style>
      .cls-1 {
        fill: #6d6e71;
        opacity:0.7;
      }
    </style>
  </defs>
  <g id="Layer_2-2" data-name="Layer 2">
    <g>
      <path class="cls-1" d="m38.67,95.83c-6.45,0-12.89,0-19.33-.02-6.02-.01-10.7-1.85-14.31-5.62C1.69,86.71,0,82.43,0,77.49c0-16.24.01-32.48.03-48.72v-10.51C.05,11.78,2.65,6.74,7.76,3.26,10.89,1.13,14.63.04,18.89.04h1.04c15.41-.02,30.82-.04,46.23-.04,13.59,0,27.17.01,40.76.06,8.13.03,14.11,3.89,17.28,11.18.8,1.84,1.26,4.08,1.29,6.3.08,6.83.08,13.73.07,20.4v16.75c-.01,7.41-.02,14.8.01,22.2.03,6.31-2.39,11.46-7.17,15.33-2.92,2.36-6.19,3.04-9,3.39-1.13.14-2.38.21-3.81.21-8.31,0-16.62,0-24.93,0h-41.98ZM12.81,41.94c0,12.05-.02,24.11,0,36.16,0,.51.09,1.06.25,1.5.78,2.14,2.29,3.05,5.03,3.05h90.13c2.67-.09,4.51-2,4.52-4.75.04-7.12.03-14.29.02-21.22,0,0-.01-9.25-.02-14.68l-18.18,13.3-18.95,13.84c-3.86,2.82-8.14,4.25-12.7,4.25-1.18,0-2.4-.1-3.61-.29-4.21-.66-7.52-2.76-9.93-4.52,0,0-27.33-19.91-36.56-26.63Zm-.03-16.13c1.02.76,2.06,1.51,3.09,2.26,0,0,20.22,14.71,25.78,18.75,1.45,1.05,2.89,2.11,4.34,3.17l.2.15c3.85,2.82,7.82,5.72,11.77,8.49,1.64,1.15,3.27,1.73,4.83,1.73,1.28,0,2.59-.39,3.9-1.16.87-.51,1.69-1.04,2.43-1.59,5.06-3.69,10.12-7.38,15.18-11.08l15.09-11.02c4.46-3.25,8.91-6.5,13.36-9.76.05-2.5.1-5.08,0-7.57-.04-.93-.26-1.85-.59-2.51-.87-1.71-2.24-2.48-4.44-2.48H25.28c-2.59,0-5.18,0-7.77,0-2.61,0-4.47,1.7-4.61,4.21-.14,2.44-.13,4.97-.13,7.41v.98Z"/>
      <path class="cls-1" d="m38.67,93.92c-6.44,0-12.89,0-19.33-.02-5.48-.01-9.71-1.66-12.93-5.03-2.98-3.12-4.49-6.95-4.49-11.39,0-16.24.01-32.48.03-48.72v-10.51c.02-5.8,2.33-10.31,6.89-13.42,2.81-1.91,6.19-2.89,10.06-2.89,15.76-.02,31.52-.04,47.27-.04,13.59,0,27.16.01,40.75.06,7.42.02,12.65,3.4,15.54,10.04.7,1.62,1.1,3.59,1.13,5.56.08,6.79.08,13.7.07,20.38,0,0,0,13.26,0,16.75,0,7.4-.01,14.8.02,22.21.02,5.7-2.15,10.36-6.46,13.84-2.55,2.06-5.49,2.66-8.04,2.98-1.06.13-2.23.2-3.58.2-8.31,0-16.62,0-24.93,0h-41.98Zm69.57-9.38c3.76-.13,6.4-2.86,6.42-6.64.04-7.08.03-14.27.02-21.23,0,0-.03-16.71-.03-18.42-.27.18-.52.36-.75.53l-20.46,14.96-18.95,13.84c-3.53,2.58-7.43,3.89-11.58,3.89-1.08,0-2.2-.09-3.31-.26-3.81-.6-6.87-2.55-9.1-4.18,0,0-30.9-22.51-38.08-27.74-.48-.35-.97-.68-1.5-1.04v.97c-.01,12.96-.02,25.92,0,38.88,0,.74.13,1.5.37,2.15,1.06,2.89,3.29,4.3,6.82,4.3h89.7s.44,0,.44,0ZM10.88,26.73s.09.1.14.14c1.23.93,2.48,1.83,3.73,2.74,0,0,20.22,14.71,25.77,18.74,1.51,1.1,3.03,2.21,4.54,3.31,3.85,2.82,7.83,5.73,11.8,8.51,1.97,1.38,3.96,2.08,5.92,2.08,1.62,0,3.26-.48,4.87-1.42.93-.54,1.8-1.11,2.59-1.69,5.06-3.69,10.12-7.38,15.18-11.08l15.09-11.02c4.6-3.35,9.19-6.7,13.78-10.06.17-.12.29-.25.34-.32v-.25c.07-2.73.13-5.55,0-8.31-.05-1.21-.34-2.38-.8-3.29-1.21-2.37-3.21-3.52-6.14-3.52H25.28c-2.59,0-5.18,0-7.77,0-3.63.01-6.31,2.48-6.51,6.01-.14,2.49-.14,5.05-.13,7.53v1.89s0,0,0,0Z"/>
    </g>
  </g>
</svg>