<?xml version="1.0" encoding="UTF-8"?>
<svg id="Layer_2" data-name="Layer 2" xmlns="http://www.w3.org/2000/svg" viewBox="0 0 124.02 124.36">
  <defs>
    <style>
      .cls-1 {
        fill: #6d6e71;
      }
    </style>
  </defs>
  <g id="Layer_2-2" data-name="Layer 2">
    <g>
      <path class="cls-1" d="m44.47,52.63c1.92,2.72,3.67,5.37,5.58,7.9,5.08,6.7,11.16,12.34,18.24,16.89.79.51,1.6.98,2.36,1.54.8.58,1.35.42,1.96-.33,2.37-2.92,4.78-5.81,7.21-8.67,1.76-2.08,4-3.5,6.73-3.67,1.49-.09,3.13.19,4.53.75,5.74,2.28,11.43,4.72,17.12,7.13,3.22,1.36,6.44,2.73,9.63,4.15,5.14,2.28,7.13,6.66,5.74,12.08-.83,3.23-1.37,6.52-2.07,9.78-1.14,5.32-2.25,10.64-3.46,15.94-1.36,5.96-5.2,8.37-11.14,8.25-9.09-.19-18.09-1.31-26.85-3.86-4.91-1.43-9.74-3.09-14.44-5.14-15.03-6.56-28-15.92-38.78-28.27-9.31-10.66-16.22-22.75-21.03-36.04-1.97-5.43-3.21-11.05-4.21-16.74C.54,28.35.08,22.35,0,16.32c-.02-1.67.32-3.45.94-5,1.33-3.3,4.28-4.62,7.53-5.32,8.66-1.88,17.34-3.71,26.01-5.57,4.93-1.06,9.12,1.03,11.14,5.69,3.82,8.82,7.61,17.66,11.37,26.51,1.84,4.33.99,8.31-2.53,11.46-2.99,2.68-6.12,5.2-9.19,7.8-.24.2-.46.42-.8.73ZM7.26,18.97s-.05,0-.07.01c.41,3.83.75,7.67,1.25,11.49.81,6.24,2.37,12.33,4.4,18.28,1.97,5.77,4.59,11.26,7.62,16.56,6.29,10.97,14.22,20.54,24.05,28.52,11.01,8.94,23.36,15.33,36.96,19.28,5.3,1.54,10.74,2.42,16.22,2.93,3.55.33,7.11.47,10.67.61,1.63.07,2.14-.4,2.5-1.95.56-2.42,1.09-4.85,1.63-7.28.72-3.22,1.46-6.43,2.14-9.66.65-3.07,1.22-6.15,1.87-9.22.33-1.55.07-2.25-1.34-2.86-8.83-3.79-17.67-7.58-26.51-11.36-1.5-.64-2.19-.48-3.28.68-.38.4-.73.83-1.08,1.25-2.12,2.58-4.2,5.18-6.37,7.72-2.85,3.35-6.22,4.01-10.08,1.98-1.57-.83-3.12-1.73-4.61-2.7-10.39-6.76-18.49-15.69-24.68-26.37-.68-1.17-1.15-2.56-1.35-3.91-.4-2.83.96-5,3.07-6.75,2.84-2.36,5.69-4.71,8.53-7.08,1.73-1.45,1.88-1.94,1.01-4-1.58-3.79-3.21-7.57-4.82-11.35-1.93-4.52-3.8-9.08-5.84-13.55-1.19-2.61-.9-2.87-4.44-2.26-.03,0-.06.02-.09.03-4.4.94-8.8,1.88-13.2,2.82-3.99.85-7.98,1.69-11.97,2.53-1.57.33-2.15,1-2.21,2.6-.04,1,0,2.01,0,3.01Z"/>
      <path class="cls-1" d="m124.02,56.73c0,.52,0,1.04,0,1.56.02,1.5-.59,2.63-1.97,3.28-1.47.7-2.93.55-4.07-.53-.59-.56-.99-1.53-1.11-2.36-.34-2.4-.45-4.84-.74-7.25-1.12-9.14-4.69-17.26-10.39-24.45-7.64-9.64-17.52-15.74-29.58-18.16-3.13-.63-6.35-.88-9.54-1.11-3.28-.24-5.11-2.56-4.05-5.41.52-1.4,2.19-2.38,4.16-2.29,6.57.3,13.02,1.37,19.22,3.58,8.97,3.2,16.52,8.59,22.96,15.55,5.29,5.71,9.18,12.29,11.77,19.61,2.05,5.81,3.2,11.8,3.34,17.98Z"/>
      <path class="cls-1" d="m100.65,57.52c.23,2.92-1.17,3.9-2.8,4.34-1.86.5-3.89-.65-4.23-2.53-.37-2.03-.47-4.12-.82-6.15-1.08-6.31-4.39-11.32-9.1-15.52-4.36-3.89-9.49-5.94-15.28-6.48-1-.09-2-.17-2.98-.36-2.31-.46-3.37-1.95-3.11-4.27.21-1.87,1.94-3.33,4.01-3.16,5.75.45,11.39,1.44,16.48,4.35,7.29,4.16,12.59,10.08,15.49,18.03,1.43,3.92,2.31,8.44,2.34,11.75Z"/>
      <path class="cls-1" d="m77.32,54.33c.11,4.49-3.16,7.62-7.53,7.72-4.3.1-7.56-3.39-7.56-7.73,0-5.02,3.7-7.61,7.65-7.57,4.69.05,7.6,3.65,7.43,7.58Z"/>
    </g>
  </g>
</svg>