<?xml version="1.0" encoding="UTF-8"?>
<svg id="Layer_2" data-name="Layer 2" xmlns="http://www.w3.org/2000/svg" viewBox="0 0 125.49 125.56" style="fill:rgb(0, 85, 165);">
  <g id="Layer_1-2" data-name="Layer 1">
    <path d="m23.29,119.29c-1.23,5.13-4.74,6.5-9.44,6.24-3.43-.19-6.88-.03-10.31-.04-2.78-.01-3.5-.63-3.51-3.31-.03-10.16-.03-20.31,0-30.47,0-2.66.77-3.37,3.51-3.35,6.07.04,12.14.15,18.21.19.51,0,1.08-.22,1.52-.51.67-.43,1.25-1,1.86-1.52,5.91-5.01,12.74-7.51,20.5-7.42,1.81.02,3.61,0,5.42,0l.2-.5c-.65-.52-1.3-1.04-1.96-1.55-7.15-5.43-13.82-11.39-19.72-18.17-.52-.6-1.07-1.2-1.49-1.88-.63-1.02-.46-2.09.33-2.83.81-.76,2.1-.78,3.06.01.42.36.76.81,1.13,1.24,7.62,8.85,16.52,16.23,26.14,22.8,1.93,1.32,6.23,1.29,8.16-.02,9.7-6.59,18.63-14.06,26.3-22.97,1.48-1.72,2.93-2.08,4.03-1.04,1.1,1.04.96,2.2-.55,3.97-6.68,7.83-14.42,14.5-22.7,20.57-.89.65-1.78,1.31-2.76,2.04.54.69,1,1.24,1.41,1.81,3.9,5.34,1.02,12.32-5.51,13.3-2.37.36-4.76.61-7.13.93-.94.13-1.87.3-3.33.53.77.51,1.13.94,1.55,1.01,3.7.61,7.39,1.42,11.12,1.66,4.46.28,8.95.02,13.43.09,1.71.03,3.06-.48,4.37-1.56,4.71-3.84,9.45-7.65,14.23-11.39,4.66-3.65,10.79-3.45,14.95.36,2.29,2.1,3.04,5.11,1.78,7.85-.45.98-1.17,1.94-2,2.64-7.09,5.98-14.22,11.91-21.36,17.83-2.21,1.83-4.8,2.85-7.61,3.32-7.09,1.18-14.21,2.25-21.27,3.57-3.4.63-6.69.06-10.02-.24-7.16-.66-14.31-1.44-21.47-2.17-2.7-.28-5.41-.56-8.11-.82-.94-.09-1.89-.13-2.94-.2Zm.05-4.67c3.21.33,6.29.66,9.38.97,7.31.74,14.62,1.52,21.94,2.2,3.17.29,6.43.86,9.54.47,7.13-.89,14.18-2.37,21.28-3.46,2.96-.46,5.42-1.67,7.69-3.58,6.28-5.32,12.63-10.57,18.96-15.84.31-.26.63-.5.91-.77,1.45-1.4,1.4-2.77-.22-4.02-1.89-1.46-4.04-1.98-6.31-1.11-1.09.42-2.13,1.09-3.06,1.82-4.77,3.76-9.52,7.56-14.24,11.38-1.56,1.26-3.26,1.9-5.29,1.86-3.44-.07-6.88-.15-10.31,0-5.4.25-10.67-.57-15.94-1.58-3.42-.65-5.81-3.06-6.37-6.34-.39-2.23.37-3.3,2.64-3.6,2.61-.35,5.23-.65,7.85-.98,1.66-.21,3.34-.36,4.98-.7,1.95-.41,3.14-1.99,3.05-3.75-.1-1.84-1.57-3.49-3.45-3.78-.63-.1-1.28-.08-1.91-.08-6.56,0-13.11.01-19.67,0-5.91-.02-11.12,1.93-15.75,5.52-1.89,1.47-3.74,2.99-5.68,4.54v20.86Zm-18.6-21.53v27.85c3.51,0,6.85.01,10.19,0,3.13-.01,3.67-.53,3.67-3.59.01-7.35,0-14.69,0-22.04,0-.69-.1-1.39-.16-2.21H4.74Z"/>
    <path d="m83.07,44.2h2.37c8.07,0,16.15-.03,24.22.02,1.46,0,2.44-.26,3.33-1.64,1.8-2.82,5.24-3.7,8.25-2.45,2.99,1.24,4.69,4.35,4.14,7.6-.52,3.09-3.31,5.6-6.54,5.69-2.27.06-4.22-.81-5.65-2.64-.44-.56-.79-1.19-1.34-2.03-.73,0-1.59,0-2.45,0-8.87,0-17.75,0-26.62,0-2.85,0-3.05-.14-3.99-2.78-.99-2.78-1.96-5.57-2.96-8.36-.21-.59-.48-1.15-.88-2.12-.39.97-.67,1.57-.88,2.2-2.87,8.81-5.73,17.62-8.59,26.43-.2.61-.35,1.24-.63,1.81-.89,1.79-2.94,1.92-4.02.26-.39-.6-.62-1.29-.91-1.95-3.43-8-6.85-16.01-10.28-24.02-.34-.79-.73-1.57-1.2-2.58-.53.64-.97,1.08-1.31,1.58-1.75,2.58-3.5,5.16-5.18,7.79-.82,1.28-1.85,1.78-3.38,1.78-11.75-.05-23.51-.02-35.26-.03-.48,0-.97.02-1.43-.08-1.05-.23-1.65-.93-1.75-2.01-.1-1.11.52-2.06,1.66-2.32.77-.17,1.59-.14,2.38-.14,10.55,0,21.11-.05,31.66.04,1.81.01,2.92-.49,3.88-2.06,2-3.27,4.21-6.41,6.35-9.6.31-.46.59-.96.97-1.37,1.24-1.36,2.83-1.23,3.79.32.33.54.54,1.16.79,1.74,3.18,7.42,6.36,14.83,9.54,22.25.34.8.72,1.57,1.3,2.82.49-1.32.84-2.18,1.12-3.06,2.89-8.89,5.77-17.78,8.65-26.67.45-1.38.74-2.89,2.66-2.88,1.78,0,2.11,1.44,2.56,2.72,1.57,4.44,3.13,8.89,4.7,13.33.26.74.56,1.48.92,2.42Zm35.57-.06c-1.21-.03-2.31,1-2.36,2.24-.07,1.35,1.03,2.5,2.37,2.47,1.24-.03,2.24-1.08,2.24-2.35,0-1.27-1.01-2.33-2.24-2.36Z"/>
    <path d="m62.83,7.53c3.8-2.56,7.68-4.59,11.92-5.89,10.42-3.21,19.9-1.53,28.29,5.55,6.81,5.74,9.31,13.18,8.26,21.87-.31,2.6-1.15,5.13-1.77,7.69-.13.54-.35,1.07-.63,1.55-.58.98-1.65,1.34-2.69.98-1.07-.37-1.54-1.19-1.4-2.23.12-.94.45-1.86.74-2.77,1.42-4.5,1.93-9.05.86-13.7-.72-3.11-2.19-5.84-4.43-8.1-7.3-7.37-15.94-9.66-25.91-6.62-3.93,1.2-7.51,3.13-10.82,5.56-2.4,1.77-2.51,1.75-5-.03-6.07-4.33-12.66-7.22-20.29-6.75-7.64.47-13.77,3.98-18.21,10.15-3.48,4.84-3.85,10.39-2.62,16.07.4,1.87,1.09,3.67,1.57,5.52.38,1.44-.19,2.5-1.4,2.89-1.22.39-2.22-.11-2.88-1.46-.04-.07-.07-.14-.1-.22-4.84-13.46-2.67-27.03,12.85-34.77,7.02-3.5,14.36-3.62,21.67-1.12,3.37,1.16,6.53,2.94,9.77,4.48.72.34,1.36.82,2.21,1.34Z"/>
  </g>
</svg>