<?xml version="1.0" encoding="utf-8"?>
<!-- Generator: Adobe Illustrator 27.5.0, SVG Export Plug-In . SVG Version: 6.00 Build 0)  -->
<svg version="1.1" id="Layer_2_00000011020568127456355840000002279593879213606286_"
	 xmlns="http://www.w3.org/2000/svg" xmlns:xlink="http://www.w3.org/1999/xlink" x="0px" y="0px" viewBox="0 0 125.6 127.7"
	 style="enable-background:new 0 0 125.6 127.7;" xml:space="preserve">
<style type="text/css">
	.st0{fill:#6D6E71; opacity:0.7; }
    path:hover {
        fill:#6D6E71; 
        opacity:0.2;
        }
</style>
<path class="st0" d="M112.7,38.3c0.1,1.1,0.1,2.2,0.1,3.3c0,34-25.9,73.2-73.2,73.2c-14.6,0-28.1-4.2-39.5-11.6
	c2.1,0.2,4.1,0.3,6.2,0.3c12,0,23.1-4.1,31.9-11C26.8,92.4,17.4,85,14.1,74.8c1.6,0.2,3.2,0.4,4.9,0.4c2.3,0,4.6-0.3,6.8-0.9
	C13.9,71.9,5.1,61.5,5.1,49v-0.3c3.4,1.9,7.4,3.1,11.6,3.3C9.8,47.4,5.3,39.5,5.3,30.6c0-4.8,1.3-9.2,3.5-13
	c12.7,15.6,31.7,25.8,53.1,26.9c-0.4-1.9-0.6-3.9-0.6-5.9c0-14.2,11.5-25.7,25.7-25.7c7.4,0,14.1,3.1,18.8,8.1
	c5.8-1.1,11.4-3.3,16.3-6.2c-1.9,6-6,11-11.3,14.2c5.2-0.6,10.2-2,14.8-4C122.1,30.1,117.7,34.6,112.7,38.3L112.7,38.3z"/>
</svg>
